# Blender v2.92.0 OBJ File: 'blade-2.blend'
# www.blender.org
mtllib blade-2.mtl
o Cylinder_Cylinder.001
v 0.000000 -0.012477 -0.040000
v -0.202739 0.260434 -0.003846
v 0.040000 -0.012477 0.000000
v -0.201503 0.264076 0.000000
v -0.000000 -0.012477 0.040000
v -0.202739 0.260434 0.003846
v -0.040000 -0.012477 -0.000000
v -0.203976 0.256793 -0.000000
v -0.003878 0.071331 -0.032769
v -0.027980 0.141603 -0.025538
v -0.071729 0.196037 -0.018308
v -0.126988 0.234710 -0.011077
v -0.123426 0.245199 0.000000
v -0.060554 0.210539 0.000000
v -0.007470 0.156820 0.000000
v 0.027905 0.079310 0.000000
v -0.126988 0.234710 0.011077
v -0.071729 0.196037 0.018308
v -0.027980 0.141603 0.025538
v -0.003878 0.071331 0.032769
v -0.130550 0.224222 -0.000000
v -0.082903 0.181535 -0.000000
v -0.048489 0.126385 -0.000000
v -0.035661 0.063352 -0.000000
v -0.205504 0.261430 -0.000000
vt 0.750000 1.000000
vt 0.500000 1.000000
vt 0.500000 0.800000
vt 0.750000 0.800000
vt 0.250000 1.000000
vt 0.250000 0.800000
vt 0.000000 1.000000
vt 0.000000 0.800000
vt 1.000000 0.600000
vt 1.000000 0.800000
vt 0.750000 0.600000
vt 1.000000 0.000000
vt 1.000000 0.200000
vt 0.750000 0.200000
vt 0.750000 0.000000
vt 1.000000 0.400000
vt 0.750000 0.400000
vt 0.250000 0.000000
vt 0.250000 0.200000
vt 0.000000 0.200000
vt 0.000000 0.000000
vt 0.250000 0.400000
vt 0.000000 0.400000
vt 0.250000 0.600000
vt 0.000000 0.600000
vt 0.500000 0.000000
vt 0.500000 0.200000
vt 0.500000 0.400000
vt 0.500000 0.600000
vt 0.437501 1.000000
vt 1.000000 1.000000
vn -0.1025 0.9947 0.0000
vn -0.3972 0.1339 0.9079
vn -0.0527 0.0968 0.9939
vn 0.3600 0.9330 0.0000
vn -0.6906 -0.7232 0.0000
vn -0.5537 -0.8327 0.0000
vn -0.3972 0.1339 -0.9079
vn -0.0527 0.0968 -0.9939
vn -0.0332 0.1128 -0.9930
vn 0.6037 0.7971 0.0000
vn 0.0149 0.0908 -0.9958
vn 0.0415 0.1020 -0.9939
vn 0.9618 0.2738 0.0000
vn 0.9914 0.1310 0.0000
vn 0.0193 0.1178 -0.9928
vn 0.8220 0.5695 0.0000
vn -0.9989 0.0473 0.0000
vn -0.9970 -0.0769 0.0000
vn -0.9307 -0.3657 0.0000
vn -0.7679 -0.6405 0.0000
vn 0.0149 0.0908 0.9958
vn 0.0415 0.1020 0.9939
vn 0.0193 0.1178 0.9928
vn -0.0332 0.1128 0.9930
vn -0.9440 0.3298 0.0000
usemtl Grass
s 1
f 4/1/1 6/2/2 17/3/3 13/4/4
f 6/2/2 8/5/5 21/6/6 17/3/3
f 8/5/5 2/7/7 12/8/8 21/6/6
f 11/9/9 12/10/8 13/4/4 14/11/10
f 1/12/11 9/13/12 16/14/13 3/15/14
f 9/13/12 10/16/15 15/17/16 16/14/13
f 10/16/15 11/9/9 14/11/10 15/17/16
f 7/18/17 24/19/18 9/20/12 1/21/11
f 24/19/18 23/22/19 10/23/15 9/20/12
f 23/22/19 22/24/20 11/25/9 10/23/15
f 22/24/20 21/6/6 12/8/8 11/25/9
f 5/26/21 20/27/22 24/19/18 7/18/17
f 20/27/22 19/28/23 23/22/19 24/19/18
f 19/28/23 18/29/24 22/24/20 23/22/19
f 18/29/24 17/3/3 21/6/6 22/24/20
f 3/15/14 16/14/13 20/27/22 5/26/21
f 16/14/13 15/17/16 19/28/23 20/27/22
f 15/17/16 14/11/10 18/29/24 19/28/23
f 14/11/10 13/4/4 17/3/3 18/29/24
f 6/2/2 25/30/25 8/5/5
f 4/1/1 25/30/25 6/2/2
f 2/7/7 25/30/25 4/1/1
f 2/31/7 4/1/1 13/4/4 12/10/8
f 8/5/5 25/30/25 2/7/7
