# Blender v2.83.4 OBJ File: 'beam.blend'
# www.blender.org
mtllib beam.mtl
o Support_Cube.001
v 0.093575 -2.017574 -0.078662
v 0.100000 -1.987574 -0.083000
v 0.099250 -2.013554 -0.082901
v 0.099799 -2.002573 -0.082974
v 0.078662 -2.017574 -0.093575
v 0.083000 -1.987574 -0.100000
v 0.082901 -2.013554 -0.099250
v 0.082973 -2.002573 -0.099799
v 0.091559 -2.017574 -0.086187
v 0.097722 -1.987574 -0.091500
v 0.097050 -2.013554 -0.091112
v 0.097542 -2.002573 -0.091396
v 0.086187 -2.017574 -0.091559
v 0.091500 -1.987574 -0.097722
v 0.091112 -2.013554 -0.097050
v 0.091396 -2.002573 -0.097542
v -0.078663 -2.017574 -0.093575
v -0.083000 -1.987574 -0.100000
v -0.082901 -2.013554 -0.099250
v -0.082974 -2.002573 -0.099799
v -0.093575 -2.017574 -0.078662
v -0.100000 -1.987574 -0.083000
v -0.099250 -2.013554 -0.082901
v -0.099799 -2.002573 -0.082974
v -0.086188 -2.017574 -0.091559
v -0.091500 -1.987574 -0.097722
v -0.091112 -2.013554 -0.097050
v -0.091396 -2.002573 -0.097542
v -0.091559 -2.017574 -0.086187
v -0.097723 -1.987574 -0.091500
v -0.097050 -2.013554 -0.091112
v -0.097542 -2.002573 -0.091396
v 0.078662 -2.017574 0.093575
v 0.083000 -1.987574 0.100000
v 0.082901 -2.013554 0.099250
v 0.082973 -2.002573 0.099799
v 0.093575 -2.017574 0.078662
v 0.100000 -1.987574 0.083000
v 0.099250 -2.013554 0.082901
v 0.099799 -2.002573 0.082974
v 0.086187 -2.017574 0.091559
v 0.091500 -1.987574 0.097722
v 0.091112 -2.013554 0.097050
v 0.091396 -2.002573 0.097542
v 0.091559 -2.017574 0.086187
v 0.097722 -1.987574 0.091500
v 0.097050 -2.013554 0.091112
v 0.097542 -2.002573 0.091396
v -0.093575 -2.017574 0.078662
v -0.100000 -1.987574 0.083000
v -0.099250 -2.013554 0.082901
v -0.099799 -2.002573 0.082974
v -0.078663 -2.017574 0.093575
v -0.083000 -1.987574 0.100000
v -0.082901 -2.013554 0.099250
v -0.082974 -2.002573 0.099799
v -0.091559 -2.017574 0.086187
v -0.097723 -1.987574 0.091500
v -0.097050 -2.013554 0.091112
v -0.097542 -2.002573 0.091396
v -0.086188 -2.017574 0.091559
v -0.091500 -1.987574 0.097722
v -0.091112 -2.013554 0.097050
v -0.091396 -2.002573 0.097542
v 0.078663 2.017574 -0.093575
v 0.083000 1.987574 -0.100000
v 0.082901 2.013554 -0.099250
v 0.082974 2.002573 -0.099799
v 0.093575 2.017574 -0.078662
v 0.100000 1.987574 -0.083000
v 0.099250 2.013554 -0.082901
v 0.099799 2.002573 -0.082974
v 0.086188 2.017574 -0.091559
v 0.091500 1.987574 -0.097722
v 0.091112 2.013554 -0.097050
v 0.091396 2.002573 -0.097542
v 0.091559 2.017574 -0.086187
v 0.097723 1.987574 -0.091500
v 0.097050 2.013554 -0.091112
v 0.097542 2.002573 -0.091396
v -0.093575 2.017574 -0.078662
v -0.100000 1.987574 -0.083000
v -0.099250 2.013554 -0.082901
v -0.099799 2.002573 -0.082974
v -0.078662 2.017574 -0.093575
v -0.083000 1.987574 -0.100000
v -0.082901 2.013554 -0.099250
v -0.082973 2.002573 -0.099799
v -0.091559 2.017574 -0.086187
v -0.097722 1.987574 -0.091500
v -0.097050 2.013554 -0.091112
v -0.097542 2.002573 -0.091396
v -0.086187 2.017574 -0.091559
v -0.091500 1.987574 -0.097722
v -0.091112 2.013554 -0.097050
v -0.091396 2.002573 -0.097542
v 0.093575 2.017574 0.078662
v 0.100000 1.987574 0.083000
v 0.099250 2.013554 0.082901
v 0.099799 2.002573 0.082974
v 0.078663 2.017574 0.093575
v 0.083000 1.987574 0.100000
v 0.082901 2.013554 0.099250
v 0.082974 2.002573 0.099799
v 0.091559 2.017574 0.086187
v 0.097723 1.987574 0.091500
v 0.097050 2.013554 0.091112
v 0.097542 2.002573 0.091396
v 0.086188 2.017574 0.091559
v 0.091500 1.987574 0.097722
v 0.091112 2.013554 0.097050
v 0.091396 2.002573 0.097542
v -0.078662 2.017574 0.093575
v -0.083000 1.987574 0.100000
v -0.082901 2.013554 0.099250
v -0.082973 2.002573 0.099799
v -0.093575 2.017574 0.078662
v -0.100000 1.987574 0.083000
v -0.099250 2.013554 0.082901
v -0.099799 2.002573 0.082974
v -0.086187 2.017574 0.091559
v -0.091500 1.987574 0.097722
v -0.091112 2.013554 0.097050
v -0.091396 2.002573 0.097542
v -0.091559 2.017574 0.086187
v -0.097722 1.987574 0.091500
v -0.097050 2.013554 0.091112
v -0.097542 2.002573 0.091396
vt 0.376875 0.521497
vt 0.376875 0.728503
vt 0.379528 0.738404
vt 0.386596 0.745472
vt 0.396497 0.748125
vt 0.603503 0.748125
vt 0.613405 0.745472
vt 0.620472 0.738405
vt 0.623125 0.728503
vt 0.623125 0.521497
vt 0.620472 0.511596
vt 0.613404 0.504528
vt 0.603503 0.501875
vt 0.396497 0.501875
vt 0.386596 0.504528
vt 0.379528 0.511596
vt 0.126875 0.521250
vt 0.126875 0.728750
vt 0.373125 0.728750
vt 0.373125 0.521250
vt 0.614375 0.751875
vt 0.603750 0.751875
vt 0.603750 0.998125
vt 0.614375 0.998125
vt 0.626875 0.739375
vt 0.626875 0.750000
vt 0.873125 0.750000
vt 0.873125 0.739375
vt 0.873125 0.728750
vt 0.626875 0.728750
vt 0.385625 0.998125
vt 0.396250 0.998125
vt 0.396250 0.751875
vt 0.385625 0.751875
vt 0.126875 0.739375
vt 0.126875 0.750000
vt 0.373125 0.750000
vt 0.373125 0.739375
vt 0.376875 0.021497
vt 0.376875 0.228503
vt 0.379528 0.238404
vt 0.386596 0.245472
vt 0.396497 0.248125
vt 0.603503 0.248125
vt 0.613405 0.245472
vt 0.620472 0.238404
vt 0.623125 0.228503
vt 0.623125 0.021497
vt 0.620472 0.011596
vt 0.613404 0.004528
vt 0.603503 0.001875
vt 0.396497 0.001875
vt 0.386596 0.004528
vt 0.379528 0.011596
vt 0.126875 0.728750
vt 0.614375 0.251875
vt 0.603750 0.251875
vt 0.603750 0.498125
vt 0.614375 0.498125
vt 0.873125 0.510625
vt 0.873125 0.500000
vt 0.626875 0.500000
vt 0.626875 0.510625
vt 0.626875 0.521250
vt 0.873125 0.521250
vt 0.385625 0.498125
vt 0.396250 0.498125
vt 0.396250 0.251875
vt 0.385625 0.251875
vt 0.373125 0.510625
vt 0.373125 0.500000
vt 0.126875 0.500000
vt 0.126875 0.510625
vt 0.396250 0.251875
vt 0.396250 0.498125
vt 0.603750 0.498125
vt 0.626875 0.728750
vt 0.396250 0.751875
vt 0.396250 0.998125
vt 0.603750 0.998125
vt 0.378688 0.511110
vt 0.375937 0.521373
vt 0.374063 0.510690
vt 0.374062 0.521251
vt 0.375938 0.228627
vt 0.378688 0.238890
vt 0.375009 0.228782
vt 0.377830 0.239310
vt 0.125937 0.521218
vt 0.125937 0.510690
vt 0.386110 0.503688
vt 0.385577 0.502895
vt 0.377895 0.510577
vt 0.374063 0.500065
vt 0.374063 0.510560
vt 0.386110 0.246312
vt 0.377895 0.239423
vt 0.385577 0.247105
vt 0.125937 0.510560
vt 0.125938 0.500065
vt 0.396373 0.500937
vt 0.396251 0.499062
vt 0.385690 0.499063
vt 0.396373 0.249063
vt 0.385690 0.250938
vt 0.396251 0.250937
vt 0.621312 0.238890
vt 0.624062 0.228627
vt 0.622170 0.239310
vt 0.624991 0.228782
vt 0.874063 0.510690
vt 0.874062 0.521218
vt 0.624062 0.521373
vt 0.621312 0.511110
vt 0.625937 0.521251
vt 0.625937 0.510690
vt 0.613890 0.246312
vt 0.614423 0.247105
vt 0.622105 0.239423
vt 0.874063 0.500065
vt 0.874062 0.510560
vt 0.613890 0.503688
vt 0.622105 0.510577
vt 0.614423 0.502895
vt 0.625938 0.510560
vt 0.625937 0.500065
vt 0.603627 0.249063
vt 0.603749 0.250937
vt 0.614310 0.250938
vt 0.603627 0.500938
vt 0.614310 0.499063
vt 0.603750 0.499062
vt 0.378688 0.011110
vt 0.375937 0.021373
vt 0.377830 0.010690
vt 0.375009 0.021218
vt 0.125938 0.739310
vt 0.125937 0.728782
vt 0.375938 0.728627
vt 0.378688 0.738890
vt 0.374063 0.728749
vt 0.374063 0.739310
vt 0.386110 0.003688
vt 0.385577 0.002895
vt 0.377895 0.010577
vt 0.125937 0.749935
vt 0.125937 0.739440
vt 0.386110 0.746312
vt 0.377895 0.739423
vt 0.385577 0.747105
vt 0.374063 0.739440
vt 0.374063 0.749935
vt 0.396373 0.000937
vt 0.396218 0.000009
vt 0.385690 0.002830
vt 0.396218 0.999062
vt 0.385690 0.999063
vt 0.396373 0.749062
vt 0.385690 0.750938
vt 0.396251 0.750937
vt 0.621312 0.738890
vt 0.624062 0.728626
vt 0.625938 0.739310
vt 0.625937 0.728750
vt 0.624062 0.021373
vt 0.621312 0.011110
vt 0.624991 0.021218
vt 0.622170 0.010690
vt 0.874063 0.728782
vt 0.874063 0.739310
vt 0.613890 0.746312
vt 0.614423 0.747105
vt 0.622105 0.739423
vt 0.625937 0.749935
vt 0.625938 0.739440
vt 0.613890 0.003688
vt 0.622105 0.010577
vt 0.614423 0.002895
vt 0.874062 0.739440
vt 0.874062 0.749935
vt 0.603627 0.749063
vt 0.603749 0.750937
vt 0.614310 0.750938
vt 0.603627 0.000937
vt 0.614310 0.002830
vt 0.603782 0.000009
vt 0.614310 0.999063
vt 0.603782 0.999063
vt 0.375000 0.021283
vt 0.375000 0.228717
vt 0.125937 0.728717
vt 0.125937 0.521283
vt 0.396283 0.999062
vt 0.603717 0.999062
vt 0.396373 1.000000
vt 0.603627 1.000000
vt 0.874062 0.728717
vt 0.874062 0.521283
vt 0.875000 0.728627
vt 0.875000 0.521373
vn 0.3101 0.9503 0.0281
vn 0.3101 0.9503 -0.0281
vn 0.2580 0.9565 -0.1361
vn 0.1361 0.9565 -0.2580
vn 0.0281 0.9503 -0.3101
vn -0.0281 0.9503 -0.3101
vn -0.1361 0.9565 -0.2580
vn -0.2580 0.9565 -0.1361
vn -0.3101 0.9503 -0.0281
vn -0.3101 0.9503 0.0281
vn -0.2580 0.9565 0.1361
vn -0.1361 0.9565 0.2580
vn -0.0281 0.9503 0.3101
vn 0.0281 0.9503 0.3101
vn 0.1361 0.9565 0.2580
vn 0.2580 0.9565 0.1361
vn 0.9914 -0.0067 0.1305
vn 0.9914 -0.0067 -0.1305
vn 0.9914 0.0067 -0.1305
vn 0.9914 0.0067 0.1305
vn -0.5000 0.0069 -0.8660
vn -0.1305 0.0067 -0.9914
vn -0.1305 -0.0067 -0.9914
vn -0.5000 -0.0069 -0.8660
vn -0.8660 0.0069 -0.5000
vn -0.8660 -0.0069 -0.5000
vn -0.9914 -0.0067 -0.1305
vn -0.9914 0.0067 -0.1305
vn 0.5000 -0.0069 -0.8660
vn 0.1305 -0.0067 -0.9914
vn 0.1305 0.0067 -0.9914
vn 0.5000 0.0069 -0.8660
vn 0.8660 -0.0069 -0.5000
vn 0.8660 0.0069 -0.5000
vn 0.3101 -0.9503 -0.0281
vn 0.3101 -0.9503 0.0281
vn 0.2580 -0.9565 0.1361
vn 0.1361 -0.9565 0.2580
vn 0.0281 -0.9503 0.3101
vn -0.0281 -0.9503 0.3101
vn -0.1361 -0.9565 0.2580
vn -0.2580 -0.9565 0.1361
vn -0.3101 -0.9503 0.0281
vn -0.3101 -0.9503 -0.0281
vn -0.2580 -0.9565 -0.1361
vn -0.1361 -0.9565 -0.2580
vn -0.0281 -0.9503 -0.3101
vn 0.0281 -0.9503 -0.3101
vn 0.1361 -0.9565 -0.2580
vn 0.2580 -0.9565 -0.1361
vn -0.5000 -0.0069 0.8660
vn -0.1305 -0.0067 0.9914
vn -0.1305 0.0067 0.9914
vn -0.5000 0.0069 0.8660
vn -0.8660 -0.0069 0.5000
vn -0.8660 0.0069 0.5000
vn -0.9914 0.0067 0.1305
vn -0.9914 -0.0067 0.1305
vn 0.5000 0.0069 0.8660
vn 0.1305 0.0067 0.9914
vn 0.1305 -0.0067 0.9914
vn 0.5000 -0.0069 0.8660
vn 0.8660 0.0069 0.5000
vn 0.8660 -0.0069 0.5000
vn 0.7484 0.4966 0.4395
vn 0.8648 0.4866 0.1236
vn 0.8655 0.0327 0.4997
vn 0.9909 0.0319 0.1304
vn 0.8648 -0.4866 0.1236
vn 0.7484 -0.4966 0.4395
vn 0.9909 -0.0319 0.1304
vn 0.8655 -0.0327 0.4997
vn 0.4395 0.4966 0.7484
vn 0.4997 0.0327 0.8655
vn 0.4395 -0.4966 0.7485
vn 0.4997 -0.0327 0.8655
vn 0.1236 0.4866 0.8648
vn 0.1304 0.0319 0.9909
vn 0.1236 -0.4866 0.8648
vn 0.1304 -0.0319 0.9909
vn -0.7484 -0.4966 0.4395
vn -0.8648 -0.4866 0.1236
vn -0.8655 -0.0327 0.4997
vn -0.9909 -0.0319 0.1304
vn -0.8648 0.4866 0.1236
vn -0.7484 0.4966 0.4395
vn -0.9909 0.0319 0.1304
vn -0.8655 0.0327 0.4997
vn -0.4395 -0.4966 0.7484
vn -0.4997 -0.0327 0.8655
vn -0.4395 0.4966 0.7485
vn -0.4997 0.0327 0.8655
vn -0.1236 -0.4866 0.8648
vn -0.1304 -0.0319 0.9909
vn -0.1236 0.4866 0.8648
vn -0.1304 0.0319 0.9909
vn 0.7484 -0.4966 -0.4395
vn 0.8648 -0.4866 -0.1236
vn 0.8655 -0.0327 -0.4997
vn 0.9909 -0.0319 -0.1304
vn 0.8648 0.4866 -0.1236
vn 0.7484 0.4966 -0.4395
vn 0.9909 0.0319 -0.1304
vn 0.8655 0.0327 -0.4997
vn 0.4395 -0.4966 -0.7484
vn 0.4997 -0.0327 -0.8655
vn 0.4395 0.4966 -0.7485
vn 0.4997 0.0327 -0.8655
vn 0.1236 -0.4866 -0.8648
vn 0.1304 -0.0319 -0.9909
vn 0.1236 0.4866 -0.8648
vn 0.1304 0.0319 -0.9909
vn -0.7484 0.4966 -0.4395
vn -0.8648 0.4866 -0.1236
vn -0.8655 0.0327 -0.4997
vn -0.9909 0.0319 -0.1304
vn -0.8648 -0.4866 -0.1236
vn -0.7484 -0.4966 -0.4395
vn -0.9909 -0.0319 -0.1304
vn -0.8655 -0.0327 -0.4997
vn -0.4395 0.4966 -0.7484
vn -0.4997 0.0327 -0.8655
vn -0.4395 -0.4966 -0.7485
vn -0.4997 -0.0327 -0.8655
vn -0.1236 0.4866 -0.8648
vn -0.1304 0.0319 -0.9909
vn -0.1236 -0.4866 -0.8648
vn -0.1304 -0.0319 -0.9909
usemtl Wood
s 1
f 97/1/1 69/2/2 77/3/3 73/4/4 65/5/5 85/6/6 93/7/7 89/8/8 81/9/9 117/10/10 125/11/11 121/12/12 113/13/13 101/14/14 109/15/15 105/16/16
f 38/17/17 2/18/18 70/19/19 98/20/20
f 94/21/21 86/22/22 18/23/23 26/24/24
f 90/25/25 94/26/21 26/27/24 30/28/26
f 22/29/27 82/30/28 90/25/25 30/28/26
f 14/31/29 6/32/30 66/33/31 74/34/32
f 10/35/33 14/36/29 74/37/32 78/38/34
f 1/39/35 37/40/36 45/41/37 41/42/38 33/43/39 53/44/40 61/45/41 57/46/42 49/47/43 21/48/44 29/49/45 25/50/46 17/51/47 5/52/48 13/53/49 9/54/50
f 2/55/18 10/35/33 78/38/34 70/19/19
f 62/56/51 54/57/52 114/58/53 122/59/54
f 58/60/55 62/61/51 122/62/54 126/63/56
f 118/64/57 50/65/58 58/60/55 126/63/56
f 110/66/59 102/67/60 34/68/61 42/69/62
f 106/70/63 110/71/59 42/72/62 46/73/64
f 38/17/17 98/20/20 106/70/63 46/73/64
f 54/57/52 34/74/61 102/75/60 114/76/53
f 118/64/57 82/77/28 22/29/27 50/65/58
f 86/22/22 66/78/31 6/79/30 18/80/23
f 105/16/16 107/81/65 99/82/66 97/1/1
f 107/81/65 108/83/67 100/84/68 99/82/66
f 108/83/67 106/70/63 98/20/20 100/84/68
f 37/40/36 39/85/69 47/86/70 45/41/37
f 39/85/69 40/87/71 48/88/72 47/86/70
f 40/89/71 38/17/17 46/73/64 48/90/72
f 109/15/15 111/91/73 107/81/65 105/16/16
f 111/91/73 112/92/74 108/93/67 107/81/65
f 112/94/74 110/71/59 106/70/63 108/95/67
f 45/41/37 47/86/70 43/96/75 41/42/38
f 47/86/70 48/97/72 44/98/76 43/96/75
f 48/99/72 46/73/64 42/72/62 44/100/76
f 101/14/14 103/101/77 111/91/73 109/15/15
f 103/101/77 104/102/78 112/103/74 111/91/73
f 104/102/78 102/67/60 110/66/59 112/103/74
f 41/42/38 43/96/75 35/104/79 33/43/39
f 43/96/75 44/105/76 36/106/80 35/104/79
f 44/105/76 42/69/62 34/68/61 36/106/80
f 57/46/42 59/107/81 51/108/82 49/47/43
f 59/107/81 60/109/83 52/110/84 51/108/82
f 60/111/83 58/60/55 50/65/58 52/112/84
f 117/10/10 119/113/85 127/114/86 125/11/11
f 119/113/85 120/115/87 128/116/88 127/114/86
f 120/115/87 118/64/57 126/63/56 128/116/88
f 61/45/41 63/117/89 59/107/81 57/46/42
f 63/117/89 64/118/90 60/119/83 59/107/81
f 64/120/90 62/61/51 58/60/55 60/121/83
f 125/11/11 127/114/86 123/122/91 121/12/12
f 127/114/86 128/123/88 124/124/92 123/122/91
f 128/125/88 126/63/56 122/62/54 124/126/92
f 53/44/40 55/127/93 63/117/89 61/45/41
f 55/127/93 56/128/94 64/129/90 63/117/89
f 56/128/94 54/57/52 62/56/51 64/129/90
f 121/12/12 123/122/91 115/130/95 113/13/13
f 123/122/91 124/131/92 116/132/96 115/130/95
f 124/131/92 122/59/54 114/58/53 116/132/96
f 9/54/50 11/133/97 3/134/98 1/39/35
f 11/133/97 12/135/99 4/136/100 3/134/98
f 12/137/99 10/35/33 2/55/18 4/138/100
f 69/2/2 71/139/101 79/140/102 77/3/3
f 71/139/101 72/141/103 80/142/104 79/140/102
f 72/141/103 70/19/19 78/38/34 80/142/104
f 13/53/49 15/143/105 11/133/97 9/54/50
f 15/143/105 16/144/106 12/145/99 11/133/97
f 16/146/106 14/36/29 10/35/33 12/147/99
f 77/3/3 79/140/102 75/148/107 73/4/4
f 79/140/102 80/149/104 76/150/108 75/148/107
f 80/151/104 78/38/34 74/37/32 76/152/108
f 5/52/48 7/153/109 15/143/105 13/53/49
f 7/153/109 8/154/110 16/155/106 15/143/105
f 8/156/110 6/32/30 14/31/29 16/157/106
f 73/4/4 75/148/107 67/158/111 65/5/5
f 75/148/107 76/159/108 68/160/112 67/158/111
f 76/159/108 74/34/32 66/33/31 68/160/112
f 89/8/8 91/161/113 83/162/114 81/9/9
f 91/161/113 92/163/115 84/164/116 83/162/114
f 92/163/115 90/25/25 82/30/28 84/164/116
f 21/48/44 23/165/117 31/166/118 29/49/45
f 23/165/117 24/167/119 32/168/120 31/166/118
f 24/169/119 22/29/27 30/28/26 32/170/120
f 93/7/7 95/171/121 91/161/113 89/8/8
f 95/171/121 96/172/122 92/173/115 91/161/113
f 96/174/122 94/26/21 90/25/25 92/175/115
f 29/49/45 31/166/118 27/176/123 25/50/46
f 31/166/118 32/177/120 28/178/124 27/176/123
f 32/179/120 30/28/26 26/27/24 28/180/124
f 85/6/6 87/181/125 95/171/121 93/7/7
f 87/181/125 88/182/126 96/183/122 95/171/121
f 88/182/126 86/22/22 94/21/21 96/183/122
f 25/50/46 27/176/123 19/184/127 17/51/47
f 27/176/123 28/185/124 20/186/128 19/184/127
f 28/187/124 26/24/24 18/23/23 20/188/128
f 1/39/35 3/134/98 39/85/69 37/40/36
f 3/134/98 4/189/100 40/190/71 39/85/69
f 4/191/100 2/18/18 38/17/17 40/192/71
f 97/1/1 99/82/66 71/139/101 69/2/2
f 99/82/66 100/84/68 72/141/103 71/139/101
f 100/84/68 98/20/20 70/19/19 72/141/103
f 6/79/30 8/193/110 20/194/128 18/80/23
f 8/193/110 7/195/109 19/196/127 20/194/128
f 7/153/109 5/52/48 17/51/47 19/184/127
f 22/29/27 24/197/119 52/198/84 50/65/58
f 24/197/119 23/199/117 51/200/82 52/198/84
f 23/165/117 21/48/44 49/47/43 51/108/82
f 54/57/52 56/128/94 36/106/80 34/74/61
f 56/128/94 55/127/93 35/104/79 36/106/80
f 55/127/93 53/44/40 33/43/39 35/104/79
f 65/5/5 67/158/111 87/181/125 85/6/6
f 67/158/111 68/160/112 88/182/126 87/181/125
f 68/160/112 66/78/31 86/22/22 88/182/126
f 81/9/9 83/162/114 119/113/85 117/10/10
f 83/162/114 84/164/116 120/115/87 119/113/85
f 84/164/116 82/77/28 118/64/57 120/115/87
f 113/13/13 115/130/95 103/101/77 101/14/14
f 115/130/95 116/132/96 104/102/78 103/101/77
f 116/132/96 114/76/53 102/75/60 104/102/78
