# Blender v2.83.4 OBJ File: 'axe.blend'
# www.blender.org
mtllib axe.mtl
o Shaft_Cylinder
v -0.000000 -0.357058 -0.021723
v -0.000000 0.428716 -0.016519
v 0.009037 -0.357058 -0.015502
v 0.009638 0.428716 -0.012526
v 0.013160 -0.357058 0.001038
v 0.013630 0.428716 -0.002888
v 0.009037 -0.357058 0.017578
v 0.009638 0.428716 0.006750
v -0.000000 -0.357058 0.023799
v -0.000000 0.428716 0.010742
v -0.009037 -0.357058 0.017578
v -0.009638 0.428716 0.006750
v -0.013160 -0.357058 0.001038
v -0.013630 0.428716 -0.002888
v -0.009037 -0.357058 -0.015502
v -0.009638 0.428716 -0.012526
v -0.000000 -0.244709 -0.012980
v -0.000000 -0.157519 -0.008787
v -0.000000 -0.067229 -0.010419
v -0.000000 -0.044301 -0.014274
v -0.000000 0.019011 -0.017885
v -0.000000 0.115551 -0.017468
v -0.000000 0.187279 -0.013740
v -0.000000 0.255172 -0.017888
v 0.010607 0.255172 -0.013495
v 0.010607 0.187279 -0.009347
v 0.010607 0.115551 -0.013074
v 0.010607 0.019011 -0.013491
v 0.010607 -0.044301 -0.009881
v 0.010607 -0.067229 -0.006026
v 0.010607 -0.157519 -0.003857
v 0.010607 -0.244709 -0.007309
v 0.015000 0.255172 -0.002888
v 0.015000 0.187279 0.001260
v 0.015000 0.115551 -0.002468
v 0.015000 0.019011 -0.002885
v 0.015000 -0.044301 0.000726
v 0.015000 -0.067229 0.004581
v 0.015000 -0.157519 0.008045
v 0.015000 -0.244709 0.006383
v 0.010607 0.255172 0.007718
v 0.010607 0.187279 0.011866
v 0.010607 0.115551 0.008139
v 0.010607 0.019011 0.007722
v 0.010607 -0.044301 0.011332
v 0.010607 -0.067229 0.015187
v 0.010607 -0.157519 0.019948
v 0.010607 -0.244709 0.020075
v -0.000000 0.255172 0.012112
v -0.000000 0.187279 0.016260
v -0.000000 0.115551 0.012532
v -0.000000 0.019011 0.012115
v -0.000000 -0.044301 0.015726
v -0.000000 -0.067229 0.019581
v -0.000000 -0.157519 0.024878
v -0.000000 -0.244709 0.025747
v -0.010607 0.255172 0.007718
v -0.010607 0.187279 0.011866
v -0.010607 0.115551 0.008139
v -0.010607 0.019011 0.007722
v -0.010607 -0.044301 0.011332
v -0.010607 -0.067229 0.015187
v -0.010607 -0.157519 0.019948
v -0.010607 -0.244709 0.020075
v -0.015000 0.255172 -0.002888
v -0.015000 0.187279 0.001260
v -0.015000 0.115551 -0.002468
v -0.015000 0.019011 -0.002885
v -0.015000 -0.044301 0.000726
v -0.015000 -0.067229 0.004581
v -0.015000 -0.157519 0.008045
v -0.015000 -0.244709 0.006383
v -0.010607 0.255172 -0.013495
v -0.010607 0.187279 -0.009347
v -0.010607 0.115551 -0.013074
v -0.010607 0.019011 -0.013491
v -0.010607 -0.044301 -0.009881
v -0.010607 -0.067229 -0.006026
v -0.010607 -0.157519 -0.003857
v -0.010607 -0.244709 -0.007309
v -0.000000 -0.355332 -0.023891
v 0.010607 -0.355332 -0.016589
v 0.015000 -0.355332 0.001038
v 0.010607 -0.355332 0.018666
v -0.000000 -0.355332 0.025967
v -0.010607 -0.355332 0.018666
v -0.015000 -0.355332 0.001038
v -0.010607 -0.355332 -0.016589
v 0.010607 -0.353673 -0.016450
v 0.015000 -0.353673 0.001118
v 0.010607 -0.353673 0.018687
v -0.000000 -0.353673 0.025964
v -0.010607 -0.353673 0.018687
v -0.015000 -0.353673 0.001118
v -0.010607 -0.353673 -0.016450
v -0.000000 -0.353673 -0.023727
v -0.000000 0.425896 -0.017888
v 0.010607 0.425896 -0.013495
v 0.015000 0.425896 -0.002888
v 0.010607 0.425896 0.007718
v -0.000000 0.425896 0.012112
v -0.010607 0.425896 0.007718
v -0.015000 0.425896 -0.002888
v -0.010607 0.425896 -0.013495
v 0.010607 0.427621 -0.013495
v -0.000000 0.427621 -0.017888
v 0.015000 0.427621 -0.002888
v 0.010607 0.427621 0.007718
v -0.000000 0.427621 0.012112
v -0.010607 0.427621 0.007718
v -0.015000 0.427621 -0.002888
v -0.010607 0.427621 -0.013495
vt 1.000000 0.999444
vt 1.000000 1.000000
vt 0.875000 1.000000
vt 0.875000 0.999444
vt 0.750000 1.000000
vt 0.750000 0.999444
vt 0.625000 1.000000
vt 0.625000 0.999444
vt 0.500000 1.000000
vt 0.500000 0.999444
vt 0.375000 1.000000
vt 0.375000 0.999444
vt 0.250000 1.000000
vt 0.250000 0.999444
vt 0.404210 0.404210
vt 0.250000 0.468086
vt 0.095790 0.404210
vt 0.031914 0.250000
vt 0.095790 0.095790
vt 0.250000 0.031914
vt 0.404210 0.095790
vt 0.468086 0.250000
vt 0.125000 1.000000
vt 0.125000 0.999444
vt 0.000000 1.000000
vt 0.000000 0.999444
vt 0.750000 0.469128
vt 0.894597 0.409234
vt 0.960554 0.250000
vt 0.894597 0.090766
vt 0.750000 0.030872
vt 0.605403 0.090766
vt 0.539446 0.250000
vt 0.605403 0.409234
vt 0.125000 0.500833
vt 0.125000 0.555556
vt 0.000000 0.555556
vt 0.000000 0.500833
vt 0.125000 0.611111
vt 0.000000 0.611111
vt 0.125000 0.666667
vt 0.000000 0.666667
vt 0.125000 0.722222
vt 0.000000 0.722222
vt 0.125000 0.777778
vt 0.000000 0.777778
vt 0.125000 0.833333
vt 0.000000 0.833333
vt 0.125000 0.888889
vt 0.000000 0.888889
vt 0.125000 0.944444
vt 0.000000 0.944444
vt 0.250000 0.500833
vt 0.250000 0.555556
vt 0.250000 0.611111
vt 0.250000 0.666667
vt 0.250000 0.722222
vt 0.250000 0.777778
vt 0.250000 0.833333
vt 0.250000 0.888889
vt 0.250000 0.944444
vt 0.375000 0.500833
vt 0.375000 0.555556
vt 0.375000 0.611111
vt 0.375000 0.666667
vt 0.375000 0.722222
vt 0.375000 0.777778
vt 0.375000 0.833333
vt 0.375000 0.888889
vt 0.375000 0.944444
vt 0.500000 0.500833
vt 0.500000 0.555556
vt 0.500000 0.611111
vt 0.500000 0.666667
vt 0.500000 0.722222
vt 0.500000 0.777778
vt 0.500000 0.833333
vt 0.500000 0.888889
vt 0.500000 0.944444
vt 0.625000 0.500833
vt 0.625000 0.555556
vt 0.625000 0.611111
vt 0.625000 0.666667
vt 0.625000 0.722222
vt 0.625000 0.777778
vt 0.625000 0.833333
vt 0.625000 0.888889
vt 0.625000 0.944444
vt 0.750000 0.500833
vt 0.750000 0.555556
vt 0.750000 0.611111
vt 0.750000 0.666667
vt 0.750000 0.722222
vt 0.750000 0.777778
vt 0.750000 0.833333
vt 0.750000 0.888889
vt 0.750000 0.944444
vt 0.875000 0.500833
vt 0.875000 0.555556
vt 0.875000 0.611111
vt 0.875000 0.666667
vt 0.875000 0.722222
vt 0.875000 0.777778
vt 0.875000 0.833333
vt 0.875000 0.888889
vt 0.875000 0.944444
vt 1.000000 0.500833
vt 1.000000 0.555556
vt 1.000000 0.611111
vt 1.000000 0.666667
vt 1.000000 0.722222
vt 1.000000 0.777778
vt 1.000000 0.833333
vt 1.000000 0.888889
vt 1.000000 0.944444
vt 0.750000 0.490000
vt 0.919706 0.419706
vt 0.990000 0.250000
vt 0.919706 0.080294
vt 0.750000 0.010000
vt 0.580294 0.080294
vt 0.510000 0.250000
vt 0.580294 0.419706
vt 1.000000 0.500000
vt 0.875000 0.500000
vt 0.750000 0.500000
vt 0.625000 0.500000
vt 0.500000 0.500000
vt 0.375000 0.500000
vt 0.250000 0.500000
vt 0.125000 0.500000
vt 0.000000 0.500000
vt 0.419706 0.419706
vt 0.250000 0.490000
vt 0.490000 0.250000
vt 0.419706 0.080294
vt 0.250000 0.010000
vt 0.080294 0.080294
vt 0.010000 0.250000
vt 0.080294 0.419706
vn 0.0000 0.0000 -1.0000
vn 0.0000 0.3966 -0.9180
vn 0.6491 0.3966 -0.6491
vn 0.7071 0.0000 -0.7071
vn 0.9180 0.3966 0.0000
vn 1.0000 0.0000 0.0000
vn 0.6491 0.3966 0.6491
vn 0.7071 0.0000 0.7071
vn -0.0000 0.3966 0.9180
vn -0.0000 0.0000 1.0000
vn -0.6491 0.3966 0.6491
vn -0.7071 0.0000 0.7071
vn -0.9180 0.3966 -0.0000
vn -1.0000 0.0000 0.0000
vn 0.2830 0.9164 -0.2830
vn -0.0000 0.9164 -0.4003
vn -0.2830 0.9164 -0.2830
vn -0.4003 0.9164 -0.0000
vn -0.2830 0.9164 0.2830
vn -0.0000 0.9164 0.4003
vn 0.2830 0.9164 0.2830
vn 0.4003 0.9164 0.0000
vn -0.6491 0.3966 -0.6491
vn -0.7071 0.0000 -0.7071
vn -0.0000 -0.9020 -0.4317
vn 0.3507 -0.9044 -0.2431
vn 0.4150 -0.9098 -0.0000
vn 0.3507 -0.9044 0.2431
vn 0.0000 -0.9020 0.4317
vn -0.3507 -0.9044 0.2431
vn -0.4150 -0.9098 0.0000
vn -0.3507 -0.9044 -0.2431
vn -0.8088 0.0500 -0.5860
vn -0.7775 0.0386 -0.6277
vn 0.0000 0.0673 -0.9977
vn -0.5431 0.0763 -0.8362
vn -0.7412 0.0048 -0.6713
vn 0.0000 0.0111 -0.9999
vn -0.7219 -0.0664 -0.6888
vn -0.0000 -0.0957 -0.9954
vn -0.6990 -0.0798 -0.7107
vn -0.0000 -0.1101 -0.9939
vn -0.7033 -0.0187 -0.7106
vn 0.0000 -0.0261 -0.9997
vn -0.7041 0.0200 -0.7098
vn 0.0000 0.0280 -0.9996
vn -0.7140 -0.0032 -0.7001
vn 0.0000 -0.0046 -1.0000
vn -0.7033 -0.0217 -0.7106
vn -0.0000 -0.0303 -0.9995
vn -1.0000 0.0047 -0.0004
vn -1.0000 0.0041 0.0022
vn -1.0000 0.0033 0.0064
vn -0.9999 0.0046 0.0157
vn -0.9999 -0.0030 -0.0133
vn -1.0000 -0.0004 -0.0075
vn -1.0000 0.0003 -0.0058
vn -0.9999 0.0001 0.0138
vn -1.0000 -0.0005 -0.0074
vn -0.8095 -0.0066 0.5871
vn -0.7745 -0.0028 0.6326
vn -0.7342 0.0190 0.6786
vn -0.7064 0.0780 0.7035
vn -0.7122 0.0784 0.6975
vn -0.7108 0.0185 0.7032
vn -0.7099 -0.0198 0.7040
vn -0.7003 0.0033 0.7138
vn -0.7107 0.0215 0.7031
vn -0.5439 -0.0045 0.8391
vn -0.0000 0.0003 1.0000
vn -0.0000 0.0307 0.9995
vn -0.0000 0.1096 0.9940
vn -0.0000 0.1130 0.9936
vn -0.0000 0.0265 0.9996
vn -0.0000 -0.0283 0.9996
vn -0.0000 0.0045 1.0000
vn 0.8095 -0.0066 0.5871
vn 0.7745 -0.0028 0.6326
vn 0.5439 -0.0045 0.8391
vn 0.7342 0.0190 0.6786
vn 0.7064 0.0780 0.7035
vn 0.7122 0.0784 0.6975
vn 0.7108 0.0185 0.7032
vn 0.7099 -0.0198 0.7040
vn 0.7003 0.0033 0.7138
vn 0.7107 0.0215 0.7031
vn 1.0000 0.0047 -0.0004
vn 1.0000 0.0041 0.0022
vn 1.0000 0.0033 0.0064
vn 0.9999 0.0046 0.0157
vn 0.9999 -0.0030 -0.0133
vn 1.0000 -0.0004 -0.0075
vn 1.0000 0.0003 -0.0058
vn 0.9999 0.0001 0.0138
vn 1.0000 -0.0005 -0.0074
vn 0.8088 0.0500 -0.5860
vn 0.7775 0.0386 -0.6277
vn 0.7412 0.0048 -0.6713
vn 0.7219 -0.0664 -0.6888
vn 0.6990 -0.0798 -0.7107
vn 0.7033 -0.0187 -0.7106
vn 0.7041 0.0200 -0.7098
vn 0.7140 -0.0032 -0.7001
vn 0.7033 -0.0217 -0.7106
vn 0.5431 0.0763 -0.8362
vn -0.0000 -0.3424 -0.9396
vn 0.7638 -0.3524 -0.5407
vn 0.9272 -0.3744 -0.0043
vn 0.7614 -0.3783 0.5265
vn 0.0000 -0.3854 0.9227
vn -0.7614 -0.3783 0.5265
vn -0.9272 -0.3744 -0.0043
vn -0.7638 -0.3524 -0.5407
usemtl Wood
s 1
f 97/1/1 106/2/2 105/3/3 98/4/4
f 98/4/4 105/3/3 107/5/5 99/6/6
f 99/6/6 107/5/5 108/7/7 100/8/8
f 100/8/8 108/7/7 109/9/9 101/10/10
f 101/10/10 109/9/9 110/11/11 102/12/12
f 102/12/12 110/11/11 111/13/13 103/14/14
f 4/15/15 2/16/16 16/17/17 14/18/18 12/19/19 10/20/20 8/21/21 6/22/22
f 103/14/14 111/13/13 112/23/23 104/24/24
f 104/24/24 112/23/23 106/25/2 97/26/1
f 1/27/25 3/28/26 5/29/27 7/30/28 9/31/29 11/32/30 13/33/31 15/34/32
f 95/35/33 80/36/34 17/37/35 96/38/36
f 80/36/34 79/39/37 18/40/38 17/37/35
f 79/39/37 78/41/39 19/42/40 18/40/38
f 78/41/39 77/43/41 20/44/42 19/42/40
f 77/43/41 76/45/43 21/46/44 20/44/42
f 76/45/43 75/47/45 22/48/46 21/46/44
f 75/47/45 74/49/47 23/50/48 22/48/46
f 74/49/47 73/51/49 24/52/50 23/50/48
f 94/53/51 72/54/52 80/36/34 95/35/33
f 72/54/52 71/55/53 79/39/37 80/36/34
f 71/55/53 70/56/54 78/41/39 79/39/37
f 70/56/54 69/57/55 77/43/41 78/41/39
f 69/57/55 68/58/56 76/45/43 77/43/41
f 68/58/56 67/59/57 75/47/45 76/45/43
f 67/59/57 66/60/58 74/49/47 75/47/45
f 66/60/58 65/61/59 73/51/49 74/49/47
f 93/62/60 64/63/61 72/54/52 94/53/51
f 64/63/61 63/64/62 71/55/53 72/54/52
f 63/64/62 62/65/63 70/56/54 71/55/53
f 62/65/63 61/66/64 69/57/55 70/56/54
f 61/66/64 60/67/65 68/58/56 69/57/55
f 60/67/65 59/68/66 67/59/57 68/58/56
f 59/68/66 58/69/67 66/60/58 67/59/57
f 58/69/67 57/70/68 65/61/59 66/60/58
f 92/71/69 56/72/70 64/63/61 93/62/60
f 56/72/70 55/73/71 63/64/62 64/63/61
f 55/73/71 54/74/72 62/65/63 63/64/62
f 54/74/72 53/75/73 61/66/64 62/65/63
f 53/75/73 52/76/74 60/67/65 61/66/64
f 52/76/74 51/77/75 59/68/66 60/67/65
f 51/77/75 50/78/76 58/69/67 59/68/66
f 50/78/76 49/79/71 57/70/68 58/69/67
f 91/80/77 48/81/78 56/72/70 92/71/79
f 48/81/78 47/82/80 55/73/71 56/72/70
f 47/82/80 46/83/81 54/74/72 55/73/71
f 46/83/81 45/84/82 53/75/73 54/74/72
f 45/84/82 44/85/83 52/76/74 53/75/73
f 44/85/83 43/86/84 51/77/75 52/76/74
f 43/86/84 42/87/85 50/78/76 51/77/75
f 42/87/85 41/88/86 49/79/71 50/78/76
f 90/89/87 40/90/88 48/81/78 91/80/77
f 40/90/88 39/91/89 47/82/80 48/81/78
f 39/91/89 38/92/90 46/83/81 47/82/80
f 38/92/90 37/93/91 45/84/82 46/83/81
f 37/93/91 36/94/92 44/85/83 45/84/82
f 36/94/92 35/95/93 43/86/84 44/85/83
f 35/95/93 34/96/94 42/87/85 43/86/84
f 34/96/94 33/97/95 41/88/86 42/87/85
f 89/98/96 32/99/97 40/90/88 90/89/87
f 32/99/97 31/100/98 39/91/89 40/90/88
f 31/100/98 30/101/99 38/92/90 39/91/89
f 30/101/99 29/102/100 37/93/91 38/92/90
f 29/102/100 28/103/101 36/94/92 37/93/91
f 28/103/101 27/104/102 35/95/93 36/94/92
f 27/104/102 26/105/103 34/96/94 35/95/93
f 26/105/103 25/106/104 33/97/95 34/96/94
f 96/107/105 17/108/35 32/99/97 89/98/96
f 17/108/35 18/109/38 31/100/98 32/99/97
f 18/109/38 19/110/40 30/101/99 31/100/98
f 19/110/40 20/111/42 29/102/100 30/101/99
f 20/111/42 21/112/44 28/103/101 29/102/100
f 21/112/44 22/113/46 27/104/102 28/103/101
f 22/113/46 23/114/48 26/105/103 27/104/102
f 23/114/48 24/115/50 25/106/104 26/105/103
f 3/28/26 1/27/25 81/116/106 82/117/107
f 5/29/27 3/28/26 82/117/107 83/118/108
f 7/30/28 5/29/27 83/118/108 84/119/109
f 9/31/29 7/30/28 84/119/109 85/120/110
f 11/32/30 9/31/29 85/120/110 86/121/111
f 13/33/31 11/32/30 86/121/111 87/122/112
f 15/34/32 13/33/31 87/122/112 88/123/113
f 1/27/25 15/34/32 88/123/113 81/116/106
f 81/124/106 96/107/105 89/98/96 82/125/107
f 82/125/107 89/98/96 90/89/87 83/126/108
f 83/126/108 90/89/87 91/80/77 84/127/109
f 84/127/109 91/80/77 92/71/79 85/128/110
f 85/128/110 92/71/69 93/62/60 86/129/111
f 86/129/111 93/62/60 94/53/51 87/130/112
f 87/130/112 94/53/51 95/35/33 88/131/113
f 88/131/113 95/35/33 96/38/36 81/132/106
f 73/51/49 104/24/24 97/26/1 24/52/50
f 65/61/59 103/14/14 104/24/24 73/51/49
f 57/70/68 102/12/12 103/14/14 65/61/59
f 49/79/71 101/10/10 102/12/12 57/70/68
f 41/88/86 100/8/8 101/10/10 49/79/71
f 33/97/95 99/6/6 100/8/8 41/88/86
f 25/106/104 98/4/4 99/6/6 33/97/95
f 24/115/50 97/1/1 98/4/4 25/106/104
f 2/16/16 4/15/15 105/133/3 106/134/2
f 4/15/15 6/22/22 107/135/5 105/133/3
f 6/22/22 8/21/21 108/136/7 107/135/5
f 8/21/21 10/20/20 109/137/9 108/136/7
f 10/20/20 12/19/19 110/138/11 109/137/9
f 12/19/19 14/18/18 111/139/13 110/138/11
f 14/18/18 16/17/17 112/140/23 111/139/13
f 16/17/17 2/16/16 106/134/2 112/140/23
o AxeHead_Cube.001
v -0.018358 0.301259 0.052903
v -0.018693 0.391216 0.052179
v -0.023025 0.296630 -0.049730
v -0.022334 0.399063 -0.049475
v 0.018358 0.301259 0.052903
v 0.018693 0.391216 0.052179
v 0.023840 0.297567 -0.050000
v 0.023840 0.397567 -0.050000
v -0.023025 0.296567 0.048290
v -0.020636 0.399768 0.043279
v 0.020636 0.399768 0.043279
v 0.023025 0.296567 0.048290
v -0.022441 0.298261 0.051214
v -0.022441 0.394699 0.051214
v 0.022441 0.394699 0.051214
v 0.022441 0.298261 0.051214
v -0.010716 0.399063 -0.120780
v -0.011388 0.279948 -0.121167
v 0.012165 0.280769 -0.121653
v 0.012165 0.397567 -0.121653
v -0.000618 0.399768 -0.195678
v -0.002721 0.252211 -0.173445
v 0.002721 0.252211 -0.173445
v 0.000618 0.399768 -0.195678
v -0.003394 0.327764 -0.200292
v 0.003394 0.327764 -0.200292
v 0.000952 0.251384 -0.174955
v -0.000952 0.251384 -0.174955
v -0.000381 0.399768 -0.195924
v 0.000381 0.399768 -0.195924
v -0.001131 0.327764 -0.202645
v 0.001131 0.327764 -0.202645
v -0.023840 0.397567 0.050000
v -0.023840 0.397567 -0.050000
v 0.022334 0.399063 -0.049475
v 0.023840 0.397567 0.050000
v 0.010716 0.399063 -0.120780
v -0.012165 0.397567 -0.121653
v 0.001131 0.397567 -0.202645
v -0.003394 0.397567 -0.200292
v 0.003394 0.397567 -0.200292
v -0.001131 0.397567 -0.202645
v -0.022334 0.399063 0.046842
v -0.020636 0.399768 -0.048883
v 0.020636 0.399768 -0.048883
v 0.022334 0.399063 0.046842
v 0.009081 0.399768 -0.119796
v -0.009081 0.399768 -0.119796
v 0.000779 0.399063 -0.199487
v 0.002090 0.399063 -0.198124
v -0.002090 0.399063 -0.198124
v -0.000779 0.399063 -0.199487
v -0.023840 0.297567 -0.050000
v -0.023840 0.297567 0.050000
v 0.023840 0.297567 0.050000
v 0.023025 0.296630 -0.049730
v -0.012165 0.280769 -0.121653
v 0.011388 0.279948 -0.121167
v -0.001131 0.251582 -0.176464
v -0.003394 0.252634 -0.174532
v 0.003394 0.252634 -0.174532
v 0.001131 0.251582 -0.176464
vt 0.375000 0.000000
vt 0.625000 0.000000
vt 0.625000 0.250000
vt 0.375000 0.250000
vt 0.857800 0.500000
vt 0.642201 0.500000
vt 0.656891 0.500000
vt 0.843110 0.500000
vt 0.375000 0.500000
vt 0.625000 0.500000
vt 0.625000 0.750000
vt 0.375000 0.750000
vt 0.387229 0.762416
vt 0.612771 0.762416
vt 0.612771 0.987584
vt 0.387229 0.987584
vt 0.129385 0.500000
vt 0.370615 0.500000
vt 0.370726 0.745726
vt 0.129274 0.745726
vt 0.858194 0.733150
vt 0.641806 0.733150
vt 0.382754 0.992246
vt 0.617246 0.992246
vt 0.625000 1.000000
vt 0.375000 1.000000
vt 0.617246 0.757754
vt 0.382754 0.757754
vt 0.000000 0.000000
vt 0.000000 0.000000
vt 0.000000 0.000000
vt 0.000000 0.000000
vt 0.625000 0.250000
vt 0.375000 0.250000
vt 0.375000 0.500000
vt 0.625000 0.500000
vt 0.133171 0.500000
vt 0.366829 0.500000
vt 0.000000 0.000000
vt 0.000000 0.000000
vt 0.375000 0.500000
vt 0.152420 0.500000
vt 0.215058 0.500000
vt 0.284942 0.500000
vt 0.347580 0.500000
vt 0.729304 0.500000
vt 0.737123 0.500000
vt 0.762877 0.500000
vt 0.770696 0.500000
vt 0.375000 0.416667
vt 0.500000 0.416667
vt 0.500000 0.500000
vt 0.500000 0.250000
vt 0.125000 0.500000
vt 0.125000 0.500000
vt 0.000000 0.000000
vt 0.000000 0.000000
vt 0.375000 0.250000
vt 0.500000 0.333333
vt 0.375000 0.333333
vt 0.000000 0.000000
vt 0.000000 0.000000
vt 0.000000 0.000000
vt 0.000000 0.000000
vt 0.867106 0.742106
vt 0.866892 0.500000
vt 0.875000 0.500000
vt 0.875000 0.750000
vt 0.633108 0.500000
vt 0.632894 0.742106
vt 0.640038 0.500000
vt 0.859962 0.500000
vt 0.875000 0.500000
vt 0.721677 0.500000
vt 0.675815 0.500000
vt 0.625000 0.500000
vt 0.708333 0.500000
vt 0.824185 0.500000
vt 0.875000 0.500000
vt 0.778323 0.500000
vt 0.791667 0.500000
vt 0.125000 0.750000
vt 0.125000 0.500000
vt 0.208333 0.500000
vt 0.291667 0.500000
vn -0.7090 -0.5247 0.4712
vn -0.6499 0.5277 0.5469
vn -0.9203 0.3833 -0.0778
vn -0.9460 -0.3216 -0.0410
vn -0.2006 0.9796 -0.0136
vn 0.2006 0.9796 -0.0136
vn 0.1845 0.9825 -0.0264
vn -0.1845 0.9825 -0.0264
vn 0.9460 -0.3216 -0.0410
vn 0.9203 0.3833 -0.0778
vn 0.6499 0.5277 0.5469
vn 0.7090 -0.5247 0.4712
vn 0.1173 -0.1996 0.9728
vn 0.1210 0.1068 0.9869
vn -0.1210 0.1068 0.9869
vn -0.1173 -0.1996 0.9728
vn -0.4459 -0.8927 0.0646
vn 0.4459 -0.8927 0.0646
vn 0.3586 -0.9148 0.1858
vn -0.3586 -0.9148 0.1858
vn -0.1673 0.9838 0.0638
vn 0.1673 0.9838 0.0638
vn -0.3124 -0.4728 0.8239
vn -0.3401 0.1714 0.9246
vn 0.3401 0.1714 0.9246
vn 0.3124 -0.4728 0.8239
vn -0.3333 0.4787 -0.8122
vn -0.3737 -0.1489 -0.9155
vn -0.8880 -0.0778 -0.4533
vn -0.8054 0.4334 -0.4044
vn -0.9112 0.3932 -0.1231
vn -0.9442 -0.3289 -0.0192
vn 0.9441 -0.3290 -0.0224
vn 0.9105 0.3932 -0.1280
vn -0.4278 -0.8691 0.2483
vn 0.4278 -0.8691 0.2483
vn 0.9298 -0.0992 -0.3544
vn 0.8255 -0.5088 -0.2442
vn -0.4101 -0.8713 0.2695
vn -0.1668 -0.9768 0.1344
vn 0.1668 -0.9768 0.1344
vn 0.4101 -0.8713 0.2696
vn 0.1872 0.9809 -0.0533
vn 0.0645 0.9913 -0.1145
vn -0.0645 0.9913 -0.1145
vn -0.1872 0.9809 -0.0533
vn 0.3360 -0.7210 -0.6061
vn 0.5056 -0.1669 -0.8465
vn -0.8255 -0.5088 -0.2442
vn -0.3360 -0.7210 -0.6061
vn 0.8440 0.4820 -0.2354
vn 0.9916 0.0000 -0.1291
vn 0.0000 0.0000 -1.0000
vn -0.3524 0.9164 0.1898
vn -0.5510 0.8334 -0.0430
vn 0.5510 0.8334 -0.0430
vn 0.3524 0.9164 0.1898
vn 0.5358 0.8411 -0.0739
vn -0.5358 0.8411 -0.0739
vn 0.1617 0.9336 -0.3198
vn 0.4529 0.8754 -0.1691
vn 0.1508 0.8998 -0.4094
vn -0.4529 0.8754 -0.1691
vn -0.1617 0.9336 -0.3198
usemtl Iron
s 1
f 166/141/114 145/142/115 146/143/116 165/144/117
f 156/145/118 157/146/119 159/147/120 160/148/121
f 119/149/122 120/150/123 148/151/124 167/152/125
f 117/153/126 118/154/127 114/155/128 113/156/129
f 115/157/130 168/158/131 124/159/132 121/160/133
f 157/146/119 156/145/118 122/161/134 123/162/135
f 125/163/136 126/164/137 145/165/115 166/166/114
f 127/167/138 128/168/139 167/152/125 148/151/124
f 128/168/139 125/163/136 166/166/114 167/152/125
f 126/164/137 127/167/138 148/151/124 145/165/115
f 113/156/129 114/155/128 126/164/137 125/163/136
f 118/154/127 117/153/126 128/168/139 127/167/138
f 117/153/126 113/156/129 125/163/136 128/168/139
f 114/155/128 118/154/127 127/167/138 126/164/137
f 154/169/140 143/170/141 137/171/142 152/172/143
f 165/144/117 146/143/116 150/173/144 169/174/145
f 120/150/123 119/149/122 131/175/146 132/176/147
f 168/158/131 115/157/130 130/177/148 170/178/149
f 138/179/150 131/180/146 173/181/151
f 170/178/149 130/177/148 134/182/152 140/183/153 139/184/154 135/185/155
f 160/148/121 159/147/120 136/186/156 142/187/157 141/188/158 133/189/159
f 174/190/160 144/191/161 138/192/150 173/181/151
f 137/193/142 172/194/162 169/195/145
f 150/196/144 152/172/143 137/171/142 169/197/145
f 172/198/162 137/193/142 143/199/141 171/200/163
f 171/200/163 143/199/141 144/191/161 174/190/160
f 153/201/164 132/202/147 131/180/146 138/179/150 144/203/161 151/204/165
f 151/204/166 144/203/161 143/170/141 154/169/140
f 155/205/167 116/206/168 146/207/116 145/208/115
f 147/209/169 158/210/170 148/151/124 120/150/123
f 158/210/170 155/205/167 145/208/115 148/151/124
f 149/211/171 147/209/169 120/150/123 132/176/147
f 116/206/168 129/212/172 150/213/144 146/207/116
f 161/214/173 162/215/174 153/216/164 151/217/175
f 129/212/172 163/218/176 152/219/143 150/213/144
f 162/215/174 149/211/171 132/176/147 153/216/164
f 163/218/176 164/220/177 154/221/140 152/219/143
f 164/220/177 161/214/173 151/217/175 154/221/140
f 122/161/134 156/145/118 116/206/168 155/205/167
f 157/146/119 123/162/135 158/210/170 147/209/169
f 123/162/135 122/161/134 155/205/167 158/210/170
f 159/147/120 157/146/119 147/209/169 149/211/171
f 156/145/118 160/148/121 129/212/172 116/206/168
f 142/187/157 136/186/156 162/215/174 161/214/173
f 160/148/121 133/189/159 163/218/176 129/212/172
f 136/186/156 159/147/120 149/211/171 162/215/174
f 133/189/159 141/188/158 164/220/177 163/218/176
f 141/188/158 142/187/157 161/214/173 164/220/177
f 115/157/130 121/160/133 166/222/114 165/223/117
f 124/159/132 168/158/131 119/149/122 167/152/125
f 121/160/133 124/159/132 167/152/125 166/222/114
f 130/177/148 115/157/130 165/223/117 169/195/145
f 168/158/131 170/178/149 131/175/146 119/149/122
f 140/183/153 134/182/152 172/194/162 171/224/163
f 134/182/152 130/177/148 169/195/145 172/194/162
f 170/178/149 135/185/155 173/181/151 131/175/146
f 135/185/155 139/184/154 174/225/160 173/181/151
f 139/184/154 140/183/153 171/224/163 174/225/160
l 153 138
