# Blender v2.83.4 OBJ File: 'watermelon-whole.blend'
# www.blender.org
mtllib watermelon-whole.mtl
o Watermelon_Sphere
v 0.000000 -0.109659 -0.153421
v 0.000000 -0.143276 -0.088537
v 0.000000 -0.143276 0.088537
v 0.000000 -0.059347 0.183947
v 0.022711 -0.054829 -0.183947
v 0.041965 -0.101311 -0.153421
v 0.054829 -0.132370 -0.088537
v 0.054829 -0.132370 0.088537
v 0.041965 -0.101311 0.153421
v 0.022711 -0.054829 0.183947
v 0.041965 -0.041965 -0.183947
v 0.077540 -0.077540 -0.153421
v 0.101311 -0.101311 -0.088537
v 0.101311 -0.101311 0.088537
v 0.077540 -0.077540 0.153421
v 0.041965 -0.041965 0.183947
v 0.054829 -0.022711 -0.183947
v 0.101311 -0.041965 -0.153421
v 0.132370 -0.054829 -0.088537
v 0.132370 -0.054829 0.088537
v 0.101311 -0.041965 0.153421
v 0.054829 -0.022711 0.183947
v 0.059347 -0.000000 -0.183947
v 0.109659 -0.000000 -0.153421
v 0.143276 -0.000000 -0.088537
v 0.143276 0.000000 0.088537
v 0.109659 -0.000000 0.153421
v 0.059347 -0.000000 0.183947
v 0.054829 0.022711 -0.183947
v 0.101311 0.041965 -0.153421
v 0.132370 0.054829 -0.088537
v 0.132370 0.054829 0.088537
v 0.101311 0.041965 0.153421
v 0.054829 0.022711 0.183947
v 0.041965 0.041965 -0.183947
v 0.077540 0.077540 -0.153421
v 0.101311 0.101311 -0.088537
v 0.101311 0.101311 0.088537
v 0.077540 0.077540 0.153421
v 0.041965 0.041965 0.183947
v 0.022711 0.054829 -0.183947
v 0.041965 0.101311 -0.153421
v 0.054829 0.132370 -0.088537
v 0.054829 0.132370 0.088537
v 0.041965 0.101311 0.153421
v 0.022711 0.054829 0.183947
v -0.000000 0.059347 -0.183947
v -0.000000 0.109659 -0.153421
v -0.000000 0.143276 -0.088537
v -0.000000 0.143276 0.088537
v -0.000000 0.109659 0.153421
v -0.000000 0.059347 0.183947
v -0.022711 0.054829 -0.183947
v -0.041965 0.101311 -0.153421
v -0.054829 0.132370 -0.088537
v -0.054829 0.132370 0.088537
v -0.041965 0.101311 0.153421
v -0.022711 0.054829 0.183947
v -0.041965 0.041965 -0.183947
v -0.077540 0.077540 -0.153421
v -0.101311 0.101311 -0.088537
v -0.101311 0.101311 0.088537
v -0.077540 0.077540 0.153421
v -0.041965 0.041965 0.183947
v -0.054829 0.022711 -0.183947
v -0.101311 0.041964 -0.153421
v -0.132370 0.054829 -0.088537
v -0.132370 0.054829 0.088537
v -0.101311 0.041964 0.153421
v -0.054829 0.022711 0.183947
v -0.059347 -0.000000 -0.183947
v -0.109659 -0.000000 -0.153421
v -0.143276 -0.000000 -0.088537
v -0.143276 -0.000000 0.088537
v -0.109659 -0.000000 0.153421
v -0.059347 -0.000000 0.183947
v -0.054829 -0.022711 -0.183947
v -0.101311 -0.041965 -0.153421
v -0.132370 -0.054829 -0.088537
v -0.132370 -0.054829 0.088537
v -0.101311 -0.041965 0.153421
v -0.054829 -0.022711 0.183947
v -0.041965 -0.041965 -0.183947
v -0.077540 -0.077540 -0.153421
v -0.101311 -0.101311 -0.088537
v -0.101311 -0.101311 0.088537
v -0.077540 -0.077540 0.153421
v -0.041965 -0.041965 0.183947
v -0.022711 -0.054829 -0.183947
v -0.041964 -0.101311 -0.153421
v -0.054829 -0.132370 -0.088537
v -0.054829 -0.132370 0.088537
v -0.041964 -0.101311 0.153421
v -0.022711 -0.054829 0.183947
v -0.000000 -0.000000 -0.198114
v 0.000000 -0.059347 -0.183947
v 0.000000 -0.109659 0.153421
v 0.000000 -0.000000 0.198114
v -0.000000 -0.150555 0.030617
v -0.000000 -0.150555 -0.030617
v 0.057615 -0.139095 -0.030617
v 0.057615 -0.139095 0.030617
v 0.106459 -0.106459 -0.030617
v 0.106459 -0.106459 0.030617
v 0.139095 -0.057615 -0.030617
v 0.139095 -0.057615 0.030617
v 0.150555 -0.000000 -0.030617
v 0.150555 -0.000000 0.030617
v 0.139095 0.057615 -0.030617
v 0.139095 0.057615 0.030617
v 0.106459 0.106459 -0.030617
v 0.106459 0.106459 0.030617
v 0.057615 0.139095 -0.030617
v 0.057615 0.139095 0.030617
v -0.000000 0.150555 -0.030617
v -0.000000 0.150555 0.030617
v -0.057615 0.139095 -0.030617
v -0.057615 0.139095 0.030617
v -0.106459 0.106459 -0.030617
v -0.106459 0.106459 0.030617
v -0.139095 0.057615 -0.030617
v -0.139095 0.057615 0.030617
v -0.150555 -0.000000 -0.030617
v -0.150555 -0.000000 0.030617
v -0.139095 -0.057615 -0.030617
v -0.139095 -0.057615 0.030617
v -0.106459 -0.106459 -0.030617
v -0.106459 -0.106459 0.030617
v -0.057615 -0.139095 -0.030617
v -0.057615 -0.139095 0.030617
vt 0.687500 0.546737
vt 0.687500 0.625000
vt 0.625000 0.625000
vt 0.625000 0.546737
vt 0.812500 0.375000
vt 0.812500 0.453263
vt 0.750000 0.453263
vt 0.750000 0.375000
vt 0.656250 0.000000
vt 0.687500 0.125000
vt 0.625000 0.125000
vt 0.687500 0.250000
vt 0.687500 0.375000
vt 0.625000 0.375000
vt 0.625000 0.250000
vt 0.687500 0.453263
vt 0.625000 0.453263
vt 0.687500 0.750000
vt 0.687500 0.875000
vt 0.625000 0.875000
vt 0.625000 0.750000
vt 0.656250 1.000000
vt 0.562500 0.546737
vt 0.562500 0.625000
vt 0.500000 0.625000
vt 0.500000 0.546737
vt 0.562500 0.125000
vt 0.562500 0.250000
vt 0.500000 0.250000
vt 0.500000 0.125000
vt 0.562500 0.750000
vt 0.500000 0.750000
vt 0.562500 0.875000
vt 0.531250 1.000000
vt 0.500000 0.875000
vt 0.531250 0.000000
vt 0.562500 0.375000
vt 0.500000 0.375000
vt 0.562500 0.453263
vt 0.500000 0.453263
vt 0.437500 0.546737
vt 0.437500 0.625000
vt 0.375000 0.625000
vt 0.375000 0.546737
vt 0.406250 0.000000
vt 0.437500 0.125000
vt 0.375000 0.125000
vt 0.437500 0.250000
vt 0.437500 0.375000
vt 0.375000 0.375000
vt 0.375000 0.250000
vt 0.437500 0.453263
vt 0.375000 0.453263
vt 0.437500 0.750000
vt 0.437500 0.875000
vt 0.375000 0.875000
vt 0.375000 0.750000
vt 0.406250 1.000000
vt 0.312500 0.546737
vt 0.312500 0.625000
vt 0.250000 0.625000
vt 0.250000 0.546737
vt 0.312500 0.125000
vt 0.312500 0.250000
vt 0.250000 0.250000
vt 0.250000 0.125000
vt 0.312500 0.750000
vt 0.250000 0.750000
vt 0.312500 0.875000
vt 0.281250 1.000000
vt 0.250000 0.875000
vt 0.281250 0.000000
vt 0.312500 0.375000
vt 0.250000 0.375000
vt 0.312500 0.453263
vt 0.250000 0.453263
vt 0.187500 0.546737
vt 0.187500 0.625000
vt 0.125000 0.625000
vt 0.125000 0.546737
vt 0.187500 0.250000
vt 0.187500 0.375000
vt 0.125000 0.375000
vt 0.125000 0.250000
vt 0.187500 0.453263
vt 0.125000 0.453263
vt 0.187500 0.750000
vt 0.187500 0.875000
vt 0.125000 0.875000
vt 0.125000 0.750000
vt 0.187500 0.125000
vt 0.125000 0.125000
vt 0.156250 1.000000
vt 0.156250 0.000000
vt 0.062500 0.546737
vt 0.062500 0.625000
vt 0.000000 0.625000
vt 0.000000 0.546737
vt 0.062500 0.750000
vt 0.000000 0.750000
vt 0.062500 0.875000
vt 0.031250 1.000000
vt 0.000000 0.875000
vt 0.031250 0.000000
vt 0.062500 0.125000
vt 0.000000 0.125000
vt 0.062500 0.250000
vt 0.062500 0.375000
vt 0.000000 0.375000
vt 0.000000 0.250000
vt 0.062500 0.453263
vt 0.000000 0.453263
vt 0.937500 0.546737
vt 0.937500 0.625000
vt 0.875000 0.625000
vt 0.875000 0.546737
vt 0.937500 0.375000
vt 0.937500 0.453263
vt 0.875000 0.453263
vt 0.875000 0.375000
vt 0.937500 0.750000
vt 0.937500 0.875000
vt 0.875000 0.875000
vt 0.875000 0.750000
vt 0.937500 0.125000
vt 0.937500 0.250000
vt 0.875000 0.250000
vt 0.875000 0.125000
vt 0.906250 1.000000
vt 0.906250 0.000000
vt 0.812500 0.625000
vt 0.812500 0.750000
vt 0.750000 0.750000
vt 0.750000 0.625000
vt 0.812500 0.875000
vt 0.781250 1.000000
vt 0.750000 0.875000
vt 0.781250 0.000000
vt 0.812500 0.125000
vt 0.750000 0.125000
vt 0.812500 0.250000
vt 0.750000 0.250000
vt 0.812500 0.546737
vt 0.750000 0.546737
vt 0.718750 1.000000
vt 0.718750 0.000000
vt 0.593750 1.000000
vt 0.593750 0.000000
vt 0.468750 1.000000
vt 0.468750 0.000000
vt 0.343750 1.000000
vt 0.343750 0.000000
vt 0.218750 1.000000
vt 0.218750 0.000000
vt 0.093750 1.000000
vt 0.093750 0.000000
vt 1.000000 0.546737
vt 1.000000 0.625000
vt 0.968750 0.000000
vt 1.000000 0.125000
vt 1.000000 0.250000
vt 1.000000 0.375000
vt 1.000000 0.453263
vt 1.000000 0.750000
vt 1.000000 0.875000
vt 0.968750 1.000000
vt 0.843750 1.000000
vt 0.843750 0.000000
vn 0.3819 -0.9221 -0.0620
vn 0.3661 -0.8839 -0.2910
vn 0.6765 -0.6765 -0.2910
vn 0.7057 -0.7057 -0.0620
vn -0.3661 -0.8839 0.2910
vn -0.3819 -0.9221 0.0620
vn 0.0000 -0.9980 0.0620
vn 0.0000 -0.9567 0.2910
vn 0.0000 0.0000 1.0000
vn 0.1516 -0.3662 0.9181
vn 0.2803 -0.2803 0.9181
vn 0.2853 -0.6887 0.6665
vn 0.3661 -0.8839 0.2910
vn 0.6765 -0.6765 0.2910
vn 0.5271 -0.5271 0.6665
vn 0.3819 -0.9221 0.0620
vn 0.7057 -0.7057 0.0620
vn 0.2853 -0.6887 -0.6665
vn 0.1516 -0.3662 -0.9181
vn 0.2803 -0.2803 -0.9181
vn 0.5271 -0.5271 -0.6665
vn 0.0000 0.0000 -1.0000
vn 0.9221 -0.3819 -0.0620
vn 0.8839 -0.3661 -0.2910
vn 0.9567 0.0000 -0.2910
vn 0.9980 0.0000 -0.0620
vn 0.3662 -0.1516 0.9181
vn 0.6887 -0.2853 0.6665
vn 0.7454 0.0000 0.6665
vn 0.3963 0.0000 0.9181
vn 0.6887 -0.2853 -0.6665
vn 0.7454 0.0000 -0.6665
vn 0.3662 -0.1516 -0.9181
vn 0.3963 0.0000 -0.9181
vn 0.8839 -0.3661 0.2910
vn 0.9567 0.0000 0.2910
vn 0.9221 -0.3819 0.0620
vn 0.9980 0.0000 0.0620
vn 0.9221 0.3819 -0.0620
vn 0.8839 0.3661 -0.2910
vn 0.6765 0.6765 -0.2910
vn 0.7057 0.7057 -0.0620
vn 0.3662 0.1516 0.9181
vn 0.2803 0.2803 0.9181
vn 0.6887 0.2853 0.6665
vn 0.8839 0.3661 0.2910
vn 0.6765 0.6765 0.2910
vn 0.5271 0.5271 0.6665
vn 0.9221 0.3819 0.0620
vn 0.7057 0.7057 0.0620
vn 0.6887 0.2853 -0.6665
vn 0.3662 0.1516 -0.9181
vn 0.2803 0.2803 -0.9181
vn 0.5271 0.5271 -0.6665
vn 0.3819 0.9221 -0.0620
vn 0.3661 0.8839 -0.2910
vn 0.0000 0.9567 -0.2910
vn 0.0000 0.9980 -0.0620
vn 0.1516 0.3662 0.9181
vn 0.2853 0.6887 0.6665
vn 0.0000 0.7454 0.6665
vn 0.0000 0.3963 0.9181
vn 0.2853 0.6887 -0.6665
vn 0.0000 0.7454 -0.6665
vn 0.1516 0.3662 -0.9181
vn 0.0000 0.3963 -0.9181
vn 0.3661 0.8839 0.2910
vn 0.0000 0.9567 0.2910
vn 0.3819 0.9221 0.0620
vn 0.0000 0.9980 0.0620
vn -0.3819 0.9221 -0.0620
vn -0.3661 0.8839 -0.2910
vn -0.6765 0.6765 -0.2910
vn -0.7057 0.7057 -0.0620
vn -0.2853 0.6887 0.6665
vn -0.3661 0.8839 0.2910
vn -0.6765 0.6765 0.2910
vn -0.5271 0.5271 0.6665
vn -0.3819 0.9221 0.0620
vn -0.7057 0.7057 0.0620
vn -0.2853 0.6887 -0.6665
vn -0.1516 0.3662 -0.9181
vn -0.2803 0.2803 -0.9181
vn -0.5271 0.5271 -0.6665
vn -0.1516 0.3662 0.9181
vn -0.2803 0.2803 0.9181
vn -0.9221 0.3819 -0.0620
vn -0.8839 0.3661 -0.2910
vn -0.9567 0.0000 -0.2910
vn -0.9980 0.0000 -0.0620
vn -0.6887 0.2853 -0.6665
vn -0.7454 0.0000 -0.6665
vn -0.3662 0.1516 -0.9181
vn -0.3963 0.0000 -0.9181
vn -0.3662 0.1516 0.9181
vn -0.3963 0.0000 0.9181
vn -0.6887 0.2853 0.6665
vn -0.8839 0.3661 0.2910
vn -0.9567 0.0000 0.2910
vn -0.7454 0.0000 0.6665
vn -0.9221 0.3819 0.0620
vn -0.9980 0.0000 0.0620
vn -0.9221 -0.3819 -0.0620
vn -0.8839 -0.3661 -0.2910
vn -0.6765 -0.6765 -0.2910
vn -0.7057 -0.7057 -0.0620
vn -0.8839 -0.3661 0.2910
vn -0.9221 -0.3819 0.0620
vn -0.7057 -0.7057 0.0620
vn -0.6765 -0.6765 0.2910
vn -0.6887 -0.2853 -0.6665
vn -0.3662 -0.1516 -0.9181
vn -0.2803 -0.2803 -0.9181
vn -0.5271 -0.5271 -0.6665
vn -0.3662 -0.1516 0.9181
vn -0.6887 -0.2853 0.6665
vn -0.5271 -0.5271 0.6665
vn -0.2803 -0.2803 0.9181
vn -0.3661 -0.8839 -0.2910
vn -0.2853 -0.6887 -0.6665
vn 0.0000 -0.7454 -0.6665
vn 0.0000 -0.9567 -0.2910
vn -0.1516 -0.3662 -0.9181
vn 0.0000 -0.3963 -0.9181
vn -0.1516 -0.3662 0.9181
vn 0.0000 -0.3963 0.9181
vn -0.2853 -0.6887 0.6665
vn 0.0000 -0.7454 0.6665
vn -0.3819 -0.9221 -0.0620
vn 0.0000 -0.9980 -0.0620
usemtl DarkGreen
s 1
f 101/1/1 7/2/2 13/3/3 103/4/4
f 92/5/5 130/6/6 99/7/7 3/8/8
f 98/9/9 10/10/10 16/11/11
f 9/12/12 8/13/13 14/14/14 15/15/15
f 8/13/13 102/16/16 104/17/17 14/14/14
f 6/18/18 5/19/19 11/20/20 12/21/21
f 10/10/10 9/12/12 15/15/15 16/11/11
f 7/2/2 6/18/18 12/21/21 13/3/3
f 5/19/19 95/22/22 11/20/20
f 105/23/23 19/24/24 25/25/25 107/26/26
f 22/27/27 21/28/28 27/29/29 28/30/30
f 19/24/24 18/31/31 24/32/32 25/25/25
f 17/33/33 95/34/22 23/35/34
f 98/36/9 22/27/27 28/30/30
f 21/28/28 20/37/35 26/38/36 27/29/29
f 20/37/35 106/39/37 108/40/38 26/38/36
f 18/31/31 17/33/33 23/35/34 24/32/32
f 109/41/39 31/42/40 37/43/41 111/44/42
f 98/45/9 34/46/43 40/47/44
f 33/48/45 32/49/46 38/50/47 39/51/48
f 32/49/46 110/52/49 112/53/50 38/50/47
f 30/54/51 29/55/52 35/56/53 36/57/54
f 34/46/43 33/48/45 39/51/48 40/47/44
f 31/42/40 30/54/51 36/57/54 37/43/41
f 29/55/52 95/58/22 35/56/53
f 113/59/55 43/60/56 49/61/57 115/62/58
f 46/63/59 45/64/60 51/65/61 52/66/62
f 43/60/56 42/67/63 48/68/64 49/61/57
f 41/69/65 95/70/22 47/71/66
f 98/72/9 46/63/59 52/66/62
f 45/64/60 44/73/67 50/74/68 51/65/61
f 44/73/67 114/75/69 116/76/70 50/74/68
f 42/67/63 41/69/65 47/71/66 48/68/64
f 117/77/71 55/78/72 61/79/73 119/80/74
f 57/81/75 56/82/76 62/83/77 63/84/78
f 56/82/76 118/85/79 120/86/80 62/83/77
f 54/87/81 53/88/82 59/89/83 60/90/84
f 58/91/85 57/81/75 63/84/78 64/92/86
f 55/78/72 54/87/81 60/90/84 61/79/73
f 53/88/82 95/93/22 59/89/83
f 98/94/9 58/91/85 64/92/86
f 121/95/87 67/96/88 73/97/89 123/98/90
f 67/96/88 66/99/91 72/100/92 73/97/89
f 65/101/93 95/102/22 71/103/94
f 98/104/9 70/105/95 76/106/96
f 69/107/97 68/108/98 74/109/99 75/110/100
f 68/108/98 122/111/101 124/112/102 74/109/99
f 66/99/91 65/101/93 71/103/94 72/100/92
f 70/105/95 69/107/97 75/110/100 76/106/96
f 125/113/103 79/114/104 85/115/105 127/116/106
f 80/117/107 126/118/108 128/119/109 86/120/110
f 78/121/111 77/122/112 83/123/113 84/124/114
f 82/125/115 81/126/116 87/127/117 88/128/118
f 79/114/104 78/121/111 84/124/114 85/115/105
f 77/122/112 95/129/22 83/123/113
f 98/130/9 82/125/115 88/128/118
f 81/126/116 80/117/107 86/120/110 87/127/117
f 91/131/119 90/132/120 1/133/121 2/134/122
f 89/135/123 95/136/22 96/137/124
f 98/138/9 94/139/125 4/140/126
f 93/141/127 92/5/5 3/8/8 97/142/128
f 90/132/120 89/135/123 96/137/124 1/133/121
f 94/139/125 93/141/127 97/142/128 4/140/126
f 104/17/17 102/16/16 101/1/1 103/4/4
f 105/23/23 107/26/26 108/40/38 106/39/37
f 112/53/50 110/52/49 109/41/39 111/44/42
f 113/59/55 115/62/58 116/76/70 114/75/69
f 120/86/80 118/85/79 117/77/71 119/80/74
f 121/95/87 123/98/90 124/112/102 122/111/101
f 128/119/109 126/118/108 125/113/103 127/116/106
f 99/7/7 130/6/6 129/143/129 100/144/130
f 129/143/129 91/131/119 2/134/122 100/144/130
usemtl LightGreen
f 4/140/126 97/142/128 9/12/12 10/10/10
f 2/134/122 1/133/121 6/18/18 7/2/2
f 96/137/124 95/145/22 5/19/19
f 98/146/9 4/140/126 10/10/10
f 97/142/128 3/8/8 8/13/13 9/12/12
f 1/133/121 96/137/124 5/19/19 6/18/18
f 103/4/4 13/3/3 19/24/24 105/23/23
f 14/14/14 104/17/17 106/39/37 20/37/35
f 12/21/21 11/20/20 17/33/33 18/31/31
f 16/11/11 15/15/15 21/28/28 22/27/27
f 13/3/3 12/21/21 18/31/31 19/24/24
f 11/20/20 95/147/22 17/33/33
f 98/148/9 16/11/11 22/27/27
f 15/15/15 14/14/14 20/37/35 21/28/28
f 107/26/26 25/25/25 31/42/40 109/41/39
f 25/25/25 24/32/32 30/54/51 31/42/40
f 23/35/34 95/149/22 29/55/52
f 98/150/9 28/30/30 34/46/43
f 27/29/29 26/38/36 32/49/46 33/48/45
f 26/38/36 108/40/38 110/52/49 32/49/46
f 24/32/32 23/35/34 29/55/52 30/54/51
f 28/30/30 27/29/29 33/48/45 34/46/43
f 111/44/42 37/43/41 43/60/56 113/59/55
f 36/57/54 35/56/53 41/69/65 42/67/63
f 40/47/44 39/51/48 45/64/60 46/63/59
f 37/43/41 36/57/54 42/67/63 43/60/56
f 35/56/53 95/151/22 41/69/65
f 98/152/9 40/47/44 46/63/59
f 39/51/48 38/50/47 44/73/67 45/64/60
f 38/50/47 112/53/50 114/75/69 44/73/67
f 115/62/58 49/61/57 55/78/72 117/77/71
f 47/71/66 95/153/22 53/88/82
f 98/154/9 52/66/62 58/91/85
f 51/65/61 50/74/68 56/82/76 57/81/75
f 50/74/68 116/76/70 118/85/79 56/82/76
f 48/68/64 47/71/66 53/88/82 54/87/81
f 52/66/62 51/65/61 57/81/75 58/91/85
f 49/61/57 48/68/64 54/87/81 55/78/72
f 119/80/74 61/79/73 67/96/88 121/95/87
f 64/92/86 63/84/78 69/107/97 70/105/95
f 61/79/73 60/90/84 66/99/91 67/96/88
f 59/89/83 95/155/22 65/101/93
f 98/156/9 64/92/86 70/105/95
f 63/84/78 62/83/77 68/108/98 69/107/97
f 62/83/77 120/86/80 122/111/101 68/108/98
f 60/90/84 59/89/83 65/101/93 66/99/91
f 123/157/90 73/158/89 79/114/104 125/113/103
f 98/159/9 76/160/96 82/125/115
f 75/161/100 74/162/99 80/117/107 81/126/116
f 74/162/99 124/163/102 126/118/108 80/117/107
f 72/164/92 71/165/94 77/122/112 78/121/111
f 76/160/96 75/161/100 81/126/116 82/125/115
f 73/158/89 72/164/92 78/121/111 79/114/104
f 71/165/94 95/166/22 77/122/112
f 127/116/106 85/115/105 91/131/119 129/143/129
f 88/128/118 87/127/117 93/141/127 94/139/125
f 85/115/105 84/124/114 90/132/120 91/131/119
f 83/123/113 95/167/22 89/135/123
f 98/168/9 88/128/118 94/139/125
f 87/127/117 86/120/110 92/5/5 93/141/127
f 86/120/110 128/119/109 130/6/6 92/5/5
f 84/124/114 83/123/113 89/135/123 90/132/120
f 100/144/130 2/134/122 7/2/2 101/1/1
f 3/8/8 99/7/7 102/16/16 8/13/13
f 100/144/130 101/1/1 102/16/16 99/7/7
f 106/39/37 104/17/17 103/4/4 105/23/23
f 110/52/49 108/40/38 107/26/26 109/41/39
f 111/44/42 113/59/55 114/75/69 112/53/50
f 118/85/79 116/76/70 115/62/58 117/77/71
f 119/80/74 121/95/87 122/111/101 120/86/80
f 126/118/108 124/163/102 123/157/90 125/113/103
f 127/116/106 129/143/129 130/6/6 128/119/109
