# Blender v2.83.4 OBJ File: 'rock-1.blend'
# www.blender.org
mtllib rock-1.mtl
o Rock_Sphere
v 0.000329 0.026252 -0.099962
v 0.053517 0.026252 -0.099617
v 0.041142 0.001787 -0.066869
v 0.090045 0.026252 -0.063089
v 0.059168 0.001787 -0.048843
v 0.099891 0.026252 -0.000364
v 0.066137 0.001787 -0.003411
v 0.086456 0.026252 0.042252
v 0.059324 0.001787 0.016062
v 0.049903 0.026252 0.063088
v 0.037256 0.001787 0.029160
v 0.000005 0.026252 0.076458
v -0.000936 0.001787 0.039394
v -0.049894 0.026252 0.063088
v -0.039129 0.001787 0.029160
v -0.086448 0.026252 0.042252
v -0.060892 0.001787 0.016243
v -0.099587 0.026252 0.000204
v -0.063844 0.001787 0.007372
v -0.078035 0.026252 -0.041547
v -0.051091 0.001787 -0.016768
v -0.041507 0.026252 -0.078075
v -0.019635 0.001787 -0.048224
v 0.012120 0.001787 -0.066415
v 0.048048 0.011342 -0.090207
v 0.080545 0.011342 -0.057710
v 0.089178 0.011342 -0.001431
v 0.076832 0.011342 0.033858
v 0.044335 0.011342 0.053146
v -0.000057 0.011342 0.065041
v -0.044449 0.011342 0.053146
v -0.076946 0.011342 0.033858
v -0.087793 0.011342 0.001260
v -0.068330 0.011342 -0.035580
v -0.035833 0.011342 -0.068077
v 0.001528 0.011342 -0.089480
v 0.000329 0.040586 -0.099962
v 0.025795 0.082780 -0.046197
v 0.046923 0.063534 -0.088201
v 0.053517 0.040586 -0.099617
v -0.000000 0.093311 -0.000000
v 0.044096 0.082780 -0.027896
v 0.078622 0.063534 -0.056502
v 0.090045 0.040586 -0.063089
v 0.050072 0.082780 -0.000263
v 0.087043 0.063534 -0.001605
v 0.099891 0.040586 -0.000364
v 0.043301 0.082780 0.021042
v 0.075000 0.063018 0.032817
v 0.086456 0.040586 0.042252
v 0.025000 0.082780 0.035641
v 0.043301 0.060704 0.051632
v 0.049903 0.040586 0.063088
v -0.000000 0.082780 0.042340
v -0.000000 0.059816 0.063234
v 0.000005 0.040586 0.076458
v -0.025000 0.082780 0.035641
v -0.043301 0.060704 0.051632
v -0.049894 0.040586 0.063088
v -0.043301 0.082780 0.021042
v -0.075000 0.063018 0.032817
v -0.086448 0.040586 0.042252
v -0.049833 0.082780 0.000166
v -0.085581 0.063534 0.001020
v -0.099587 0.040586 0.000204
v -0.041458 0.082780 -0.023160
v -0.066596 0.063534 -0.034916
v -0.078035 0.040586 -0.041547
v -0.023156 0.082780 -0.041462
v -0.034897 0.063534 -0.066614
v -0.041507 0.040586 -0.078075
v 0.000241 0.082780 -0.050102
v 0.001546 0.063534 -0.087492
vt 0.750000 0.333333
vt 0.750000 0.500000
vt 0.666667 0.500000
vt 0.666667 0.333333
vt 0.583333 0.500000
vt 0.583333 0.333333
vt 0.500000 0.500000
vt 0.500000 0.333333
vt 0.416667 0.500000
vt 0.416667 0.333333
vt 0.333333 0.500000
vt 0.333333 0.333333
vt 0.250000 0.500000
vt 0.250000 0.333333
vt 0.166667 0.500000
vt 0.166667 0.333333
vt 0.083333 0.500000
vt 0.083333 0.333333
vt 0.000000 0.500000
vt 0.000000 0.333333
vt 0.333333 0.500000
vt 0.250000 0.500000
vt 0.166667 0.500000
vt 0.083333 0.500000
vt 1.000000 0.333333
vt 1.000000 0.500000
vt 0.916667 0.500000
vt 0.916667 0.333333
vt 1.000000 0.500000
vt 0.696595 0.333333
vt 0.668899 0.333333
vt 0.628939 0.333333
vt 0.583606 0.333333
vt 0.503327 0.333333
vt 0.463401 0.333333
vt 0.427229 0.333333
vt 0.380808 0.333333
vt 0.400791 0.333333
vt 0.501314 0.333333
vt 0.585469 0.333333
vt 0.687529 0.333333
vt 0.916667 0.500000
vt 0.833333 0.500000
vt 0.833333 0.500000
vt 0.833333 0.333333
vt 0.750000 0.500000
vt 0.666667 0.500000
vt 0.583333 0.500000
vt 0.500000 0.500000
vt 0.416667 0.500000
vt 0.750000 0.666667
vt 0.750000 0.833333
vt 0.666667 0.833333
vt 0.666667 0.666667
vt 0.708333 1.000000
vt 0.583333 0.833333
vt 0.583333 0.666667
vt 0.625000 1.000000
vt 0.500000 0.666667
vt 0.541667 1.000000
vt 0.500000 0.833333
vt 0.416667 0.666667
vt 0.458333 1.000000
vt 0.416667 0.833333
vt 0.333333 0.666667
vt 0.375000 1.000000
vt 0.333333 0.833333
vt 0.250000 0.666667
vt 0.291667 1.000000
vt 0.250000 0.833333
vt 0.166667 0.666667
vt 0.208333 1.000000
vt 0.166667 0.833333
vt 0.125000 1.000000
vt 0.083333 0.833333
vt 0.083333 0.666667
vt 0.000000 0.833333
vt 0.000000 0.666667
vt 0.000000 0.500000
vt 0.041667 1.000000
vt 1.000000 0.666667
vt 1.000000 0.833333
vt 0.916667 0.833333
vt 0.916667 0.666667
vt 0.958333 1.000000
vt 0.833333 0.833333
vt 0.833333 0.666667
vt 0.875000 1.000000
vt 0.791667 1.000000
vn -0.1695 -0.7695 -0.6157
vn -0.2250 -0.2911 -0.9299
vn 0.3736 -0.2940 -0.8798
vn 0.2336 -0.7613 -0.6049
vn 0.8509 -0.2949 -0.4347
vn 0.5800 -0.7616 -0.2890
vn 0.9509 -0.3005 0.0742
vn 0.6377 -0.7685 0.0527
vn 0.7373 -0.3141 0.5981
vn 0.4817 -0.7845 0.3905
vn 0.3642 -0.3150 0.8764
vn 0.2318 -0.7904 0.5670
vn 0.0002 -0.3059 0.9521
vn 0.0004 -0.7823 0.6229
vn -0.3642 -0.3141 0.8768
vn -0.2328 -0.7873 0.5709
vn -0.7380 -0.3150 0.5968
vn -0.4871 -0.7804 0.3920
vn -0.9464 -0.3122 -0.0822
vn -0.6254 -0.7782 -0.0573
vn 0.3646 0.2772 0.8890
vn 0.0000 0.2786 0.9604
vn -0.3646 0.2771 0.8890
vn -0.7476 0.2703 0.6066
vn -0.7687 -0.3085 -0.5603
vn -0.4941 -0.7871 -0.3692
vn -0.9620 0.2606 -0.0814
vn -0.1162 -0.9814 -0.1529
vn -0.0493 -0.9777 -0.2042
vn 0.0946 -0.9726 -0.2124
vn 0.2054 -0.9726 -0.1090
vn 0.2224 -0.9747 0.0208
vn 0.1762 -0.9750 0.1352
vn 0.0787 -0.9802 0.1816
vn -0.0014 -0.9786 0.2057
vn -0.0820 -0.9791 0.1860
vn -0.1890 -0.9722 0.1385
vn -0.2332 -0.9724 -0.0053
vn -0.1621 -0.9801 -0.1147
vn -0.7826 0.2496 -0.5703
vn -0.5647 -0.3029 -0.7677
vn -0.5753 0.2443 -0.7806
vn -0.3740 -0.7866 -0.4913
vn -0.2294 0.2386 -0.9436
vn 0.3777 0.2463 -0.8926
vn 0.8630 0.2466 -0.4409
vn 0.9652 0.2500 0.0764
vn 0.7468 0.2685 0.6085
vn -0.1709 0.6916 -0.7018
vn -0.0764 0.9312 -0.3563
vn 0.1270 0.9498 -0.2858
vn 0.2632 0.7128 -0.6501
vn -0.0047 0.9998 0.0174
vn 0.2929 0.9457 -0.1408
vn 0.6225 0.7140 -0.3204
vn 0.7098 0.7021 0.0563
vn 0.3564 0.9338 0.0323
vn 0.5649 0.6910 0.4510
vn 0.3146 0.9066 0.2812
vn 0.2971 0.6359 0.7123
vn 0.1940 0.8589 0.4740
vn -0.0000 0.6128 0.7902
vn -0.0000 0.8396 0.5432
vn -0.2971 0.6358 0.7124
vn -0.1940 0.8589 0.4740
vn -0.3159 0.9065 0.2800
vn -0.5662 0.6920 0.4478
vn -0.3794 0.9249 -0.0238
vn -0.7171 0.6950 -0.0532
vn -0.3429 0.9080 -0.2406
vn -0.6033 0.6690 -0.4340
vn -0.2434 0.9087 -0.3392
vn -0.4414 0.6671 -0.6001
usemtl Stone
s 1
f 36/1/1 1/2/2 2/3/3 25/4/4
f 25/4/4 2/3/3 4/5/5 26/6/6
f 26/6/6 4/5/5 6/7/7 27/8/8
f 27/8/8 6/7/7 8/9/9 28/10/10
f 28/10/10 8/9/9 10/11/11 29/12/12
f 29/12/12 10/11/11 12/13/13 30/14/14
f 30/14/14 12/13/13 14/15/15 31/16/16
f 31/16/16 14/15/15 16/17/17 32/18/18
f 32/18/18 16/17/17 18/19/19 33/20/20
f 10/11/11 53/21/21 56/22/22 12/13/13
f 12/13/13 56/22/22 59/23/23 14/15/15
f 16/17/17 14/15/15 59/23/23 62/24/24
f 33/25/20 18/26/19 20/27/25 34/28/26
f 18/26/19 16/17/17 62/24/24 65/29/27
f 23/30/28 24/31/29 3/32/30 5/33/31 7/34/32 9/35/33 11/36/34 13/37/35 15/38/36 17/39/37 19/40/38 21/41/39
f 20/27/25 18/26/19 65/29/27 68/42/40
f 22/43/41 20/27/25 68/42/40 71/44/42
f 34/28/26 20/27/25 22/43/41 35/45/43
f 71/44/42 37/46/44 1/2/2 22/43/41
f 2/3/3 1/2/2 37/46/44 40/47/45
f 2/3/3 40/47/45 44/48/46 4/5/5
f 35/45/43 22/43/41 1/2/2 36/1/1
f 4/5/5 44/48/46 47/49/47 6/7/7
f 6/7/7 47/49/47 50/50/48 8/9/9
f 8/9/9 50/50/48 53/21/21 10/11/11
f 5/33/31 3/32/30 25/4/4 26/6/6
f 7/34/32 5/33/31 26/6/6 27/8/8
f 9/35/33 7/34/32 27/8/8 28/10/10
f 11/36/34 9/35/33 28/10/10 29/12/12
f 13/37/35 11/36/34 29/12/12 30/14/14
f 15/38/36 13/37/35 30/14/14 31/16/16
f 17/39/37 15/38/36 31/16/16 32/18/18
f 19/40/38 17/39/37 32/18/18 33/25/20
f 21/41/39 19/40/38 33/25/20 34/28/26
f 23/30/28 21/41/39 34/28/26 35/45/43
f 24/31/29 23/30/28 35/45/43 36/1/1
f 3/32/30 24/31/29 36/1/1 25/4/4
f 73/51/49 72/52/50 38/53/51 39/54/52
f 37/46/44 73/51/49 39/54/52 40/47/45
f 72/52/50 41/55/53 38/53/51
f 39/54/52 38/53/51 42/56/54 43/57/55
f 40/47/45 39/54/52 43/57/55 44/48/46
f 38/53/51 41/58/53 42/56/54
f 44/48/46 43/57/55 46/59/56 47/49/47
f 42/56/54 41/60/53 45/61/57
f 43/57/55 42/56/54 45/61/57 46/59/56
f 47/49/47 46/59/56 49/62/58 50/50/48
f 45/61/57 41/63/53 48/64/59
f 46/59/56 45/61/57 48/64/59 49/62/58
f 50/50/48 49/62/58 52/65/60 53/21/21
f 48/64/59 41/66/53 51/67/61
f 49/62/58 48/64/59 51/67/61 52/65/60
f 53/21/21 52/65/60 55/68/62 56/22/22
f 51/67/61 41/69/53 54/70/63
f 52/65/60 51/67/61 54/70/63 55/68/62
f 56/22/22 55/68/62 58/71/64 59/23/23
f 54/70/63 41/72/53 57/73/65
f 55/68/62 54/70/63 57/73/65 58/71/64
f 57/73/65 41/74/53 60/75/66
f 58/71/64 57/73/65 60/75/66 61/76/67
f 59/23/23 58/71/64 61/76/67 62/24/24
f 61/76/67 60/75/66 63/77/68 64/78/69
f 62/24/24 61/76/67 64/78/69 65/79/27
f 60/75/66 41/80/53 63/77/68
f 64/81/69 63/82/68 66/83/70 67/84/71
f 65/29/27 64/81/69 67/84/71 68/42/40
f 63/82/68 41/85/53 66/83/70
f 67/84/71 66/83/70 69/86/72 70/87/73
f 68/42/40 67/84/71 70/87/73 71/44/42
f 66/83/70 41/88/53 69/86/72
f 70/87/73 69/86/72 72/52/50 73/51/49
f 71/44/42 70/87/73 73/51/49 37/46/44
f 69/86/72 41/89/53 72/52/50
